%TF.GenerationSoftware,KiCad,Pcbnew,8.0.2*%
%TF.CreationDate,2024-07-09T15:07:08+02:00*%
%TF.ProjectId,PiADC-IO,50694144-432d-4494-9f2e-6b696361645f,1*%
%TF.SameCoordinates,Original*%
%TF.FileFunction,Drillmap*%
%TF.FilePolarity,Positive*%
%FSLAX45Y45*%
G04 Gerber Fmt 4.5, Leading zero omitted, Abs format (unit mm)*
G04 Created by KiCad (PCBNEW 8.0.2) date 2024-07-09 15:07:08*
%MOMM*%
%LPD*%
G01*
G04 APERTURE LIST*
%ADD10C,0.150000*%
%ADD11C,0.200000*%
%ADD12C,0.100000*%
%ADD13C,0.140000*%
G04 APERTURE END LIST*
D10*
X3073700Y-1400000D02*
X3073700Y-17402000D01*
X23000000Y-1400000D02*
X3073700Y-1400000D01*
X23000000Y-17402000D02*
X23000000Y-1400000D01*
X3073700Y-17402000D02*
X23000000Y-17402000D01*
D11*
D12*
X5185000Y-9485000D02*
X5215000Y-9515000D01*
X5215000Y-9485000D02*
X5185000Y-9515000D01*
X6535000Y-9485000D02*
X6565000Y-9515000D01*
X6565000Y-9485000D02*
X6535000Y-9515000D01*
X7585000Y-7735000D02*
X7615000Y-7765000D01*
X7615000Y-7735000D02*
X7585000Y-7765000D01*
X7835000Y-8435000D02*
X7865000Y-8465000D01*
X7865000Y-8435000D02*
X7835000Y-8465000D01*
X8285000Y-5935000D02*
X8315000Y-5965000D01*
X8315000Y-5935000D02*
X8285000Y-5965000D01*
X8285000Y-6085000D02*
X8315000Y-6115000D01*
X8315000Y-6085000D02*
X8285000Y-6115000D01*
X8985000Y-9635000D02*
X9015000Y-9665000D01*
X9015000Y-9635000D02*
X8985000Y-9665000D01*
X8985000Y-10935000D02*
X9015000Y-10965000D01*
X9015000Y-10935000D02*
X8985000Y-10965000D01*
X9235000Y-5535000D02*
X9265000Y-5565000D01*
X9265000Y-5535000D02*
X9235000Y-5565000D01*
X9335000Y-5435000D02*
X9365000Y-5465000D01*
X9365000Y-5435000D02*
X9335000Y-5465000D01*
X9535000Y-5685000D02*
X9565000Y-5715000D01*
X9565000Y-5685000D02*
X9535000Y-5715000D01*
X9615000Y-7605000D02*
X9645000Y-7635000D01*
X9645000Y-7605000D02*
X9615000Y-7635000D01*
X9735000Y-7185000D02*
X9765000Y-7215000D01*
X9765000Y-7185000D02*
X9735000Y-7215000D01*
X10085000Y-4085000D02*
X10115000Y-4115000D01*
X10115000Y-4085000D02*
X10085000Y-4115000D01*
X10685000Y-8435000D02*
X10715000Y-8465000D01*
X10715000Y-8435000D02*
X10685000Y-8465000D01*
X10835000Y-5685000D02*
X10865000Y-5715000D01*
X10865000Y-5685000D02*
X10835000Y-5715000D01*
X14035000Y-9835000D02*
X14065000Y-9865000D01*
X14065000Y-9835000D02*
X14035000Y-9865000D01*
X14035000Y-14235000D02*
X14065000Y-14265000D01*
X14065000Y-14235000D02*
X14035000Y-14265000D01*
X16735000Y-6585000D02*
X16765000Y-6615000D01*
X16765000Y-6585000D02*
X16735000Y-6615000D01*
X19335000Y-4085000D02*
X19365000Y-4115000D01*
X19365000Y-4085000D02*
X19335000Y-4115000D01*
X7182000Y-3838000D02*
G75*
G02*
X7102000Y-3838000I-40000J0D01*
G01*
X7102000Y-3838000D02*
G75*
G02*
X7182000Y-3838000I40000J0D01*
G01*
X7182000Y-4600000D02*
G75*
G02*
X7102000Y-4600000I-40000J0D01*
G01*
X7102000Y-4600000D02*
G75*
G02*
X7182000Y-4600000I40000J0D01*
G01*
X7436000Y-3838000D02*
G75*
G02*
X7356000Y-3838000I-40000J0D01*
G01*
X7356000Y-3838000D02*
G75*
G02*
X7436000Y-3838000I40000J0D01*
G01*
X7436000Y-4600000D02*
G75*
G02*
X7356000Y-4600000I-40000J0D01*
G01*
X7356000Y-4600000D02*
G75*
G02*
X7436000Y-4600000I40000J0D01*
G01*
X7690000Y-3838000D02*
G75*
G02*
X7610000Y-3838000I-40000J0D01*
G01*
X7610000Y-3838000D02*
G75*
G02*
X7690000Y-3838000I40000J0D01*
G01*
X7690000Y-4600000D02*
G75*
G02*
X7610000Y-4600000I-40000J0D01*
G01*
X7610000Y-4600000D02*
G75*
G02*
X7690000Y-4600000I40000J0D01*
G01*
X7944000Y-3838000D02*
G75*
G02*
X7864000Y-3838000I-40000J0D01*
G01*
X7864000Y-3838000D02*
G75*
G02*
X7944000Y-3838000I40000J0D01*
G01*
X7944000Y-4600000D02*
G75*
G02*
X7864000Y-4600000I-40000J0D01*
G01*
X7864000Y-4600000D02*
G75*
G02*
X7944000Y-4600000I40000J0D01*
G01*
X8015000Y-5250000D02*
G75*
G02*
X7935000Y-5250000I-40000J0D01*
G01*
X7935000Y-5250000D02*
G75*
G02*
X8015000Y-5250000I40000J0D01*
G01*
X8198000Y-3838000D02*
G75*
G02*
X8118000Y-3838000I-40000J0D01*
G01*
X8118000Y-3838000D02*
G75*
G02*
X8198000Y-3838000I40000J0D01*
G01*
X8198000Y-4600000D02*
G75*
G02*
X8118000Y-4600000I-40000J0D01*
G01*
X8118000Y-4600000D02*
G75*
G02*
X8198000Y-4600000I40000J0D01*
G01*
X8265000Y-5250000D02*
G75*
G02*
X8185000Y-5250000I-40000J0D01*
G01*
X8185000Y-5250000D02*
G75*
G02*
X8265000Y-5250000I40000J0D01*
G01*
X8452000Y-3838000D02*
G75*
G02*
X8372000Y-3838000I-40000J0D01*
G01*
X8372000Y-3838000D02*
G75*
G02*
X8452000Y-3838000I40000J0D01*
G01*
X8452000Y-4600000D02*
G75*
G02*
X8372000Y-4600000I-40000J0D01*
G01*
X8372000Y-4600000D02*
G75*
G02*
X8452000Y-4600000I40000J0D01*
G01*
X8706000Y-3838000D02*
G75*
G02*
X8626000Y-3838000I-40000J0D01*
G01*
X8626000Y-3838000D02*
G75*
G02*
X8706000Y-3838000I40000J0D01*
G01*
X8706000Y-4600000D02*
G75*
G02*
X8626000Y-4600000I-40000J0D01*
G01*
X8626000Y-4600000D02*
G75*
G02*
X8706000Y-4600000I40000J0D01*
G01*
X8960000Y-3838000D02*
G75*
G02*
X8880000Y-3838000I-40000J0D01*
G01*
X8880000Y-3838000D02*
G75*
G02*
X8960000Y-3838000I40000J0D01*
G01*
X8960000Y-4600000D02*
G75*
G02*
X8880000Y-4600000I-40000J0D01*
G01*
X8880000Y-4600000D02*
G75*
G02*
X8960000Y-4600000I40000J0D01*
G01*
X8965000Y-5050000D02*
G75*
G02*
X8885000Y-5050000I-40000J0D01*
G01*
X8885000Y-5050000D02*
G75*
G02*
X8965000Y-5050000I40000J0D01*
G01*
X9215000Y-5050000D02*
G75*
G02*
X9135000Y-5050000I-40000J0D01*
G01*
X9135000Y-5050000D02*
G75*
G02*
X9215000Y-5050000I40000J0D01*
G01*
X15828000Y-3750000D02*
G75*
G02*
X15748000Y-3750000I-40000J0D01*
G01*
X15748000Y-3750000D02*
G75*
G02*
X15828000Y-3750000I40000J0D01*
G01*
X15828000Y-4512000D02*
G75*
G02*
X15748000Y-4512000I-40000J0D01*
G01*
X15748000Y-4512000D02*
G75*
G02*
X15828000Y-4512000I40000J0D01*
G01*
X16082000Y-3750000D02*
G75*
G02*
X16002000Y-3750000I-40000J0D01*
G01*
X16002000Y-3750000D02*
G75*
G02*
X16082000Y-3750000I40000J0D01*
G01*
X16082000Y-4512000D02*
G75*
G02*
X16002000Y-4512000I-40000J0D01*
G01*
X16002000Y-4512000D02*
G75*
G02*
X16082000Y-4512000I40000J0D01*
G01*
X16165000Y-5400000D02*
G75*
G02*
X16085000Y-5400000I-40000J0D01*
G01*
X16085000Y-5400000D02*
G75*
G02*
X16165000Y-5400000I40000J0D01*
G01*
X16336000Y-3750000D02*
G75*
G02*
X16256000Y-3750000I-40000J0D01*
G01*
X16256000Y-3750000D02*
G75*
G02*
X16336000Y-3750000I40000J0D01*
G01*
X16336000Y-4512000D02*
G75*
G02*
X16256000Y-4512000I-40000J0D01*
G01*
X16256000Y-4512000D02*
G75*
G02*
X16336000Y-4512000I40000J0D01*
G01*
X16415000Y-5400000D02*
G75*
G02*
X16335000Y-5400000I-40000J0D01*
G01*
X16335000Y-5400000D02*
G75*
G02*
X16415000Y-5400000I40000J0D01*
G01*
X16590000Y-3750000D02*
G75*
G02*
X16510000Y-3750000I-40000J0D01*
G01*
X16510000Y-3750000D02*
G75*
G02*
X16590000Y-3750000I40000J0D01*
G01*
X16590000Y-4512000D02*
G75*
G02*
X16510000Y-4512000I-40000J0D01*
G01*
X16510000Y-4512000D02*
G75*
G02*
X16590000Y-4512000I40000J0D01*
G01*
X16844000Y-3750000D02*
G75*
G02*
X16764000Y-3750000I-40000J0D01*
G01*
X16764000Y-3750000D02*
G75*
G02*
X16844000Y-3750000I40000J0D01*
G01*
X16844000Y-4512000D02*
G75*
G02*
X16764000Y-4512000I-40000J0D01*
G01*
X16764000Y-4512000D02*
G75*
G02*
X16844000Y-4512000I40000J0D01*
G01*
X16965000Y-5400000D02*
G75*
G02*
X16885000Y-5400000I-40000J0D01*
G01*
X16885000Y-5400000D02*
G75*
G02*
X16965000Y-5400000I40000J0D01*
G01*
X17098000Y-3750000D02*
G75*
G02*
X17018000Y-3750000I-40000J0D01*
G01*
X17018000Y-3750000D02*
G75*
G02*
X17098000Y-3750000I40000J0D01*
G01*
X17098000Y-4512000D02*
G75*
G02*
X17018000Y-4512000I-40000J0D01*
G01*
X17018000Y-4512000D02*
G75*
G02*
X17098000Y-4512000I40000J0D01*
G01*
X17215000Y-5400000D02*
G75*
G02*
X17135000Y-5400000I-40000J0D01*
G01*
X17135000Y-5400000D02*
G75*
G02*
X17215000Y-5400000I40000J0D01*
G01*
X17352000Y-3750000D02*
G75*
G02*
X17272000Y-3750000I-40000J0D01*
G01*
X17272000Y-3750000D02*
G75*
G02*
X17352000Y-3750000I40000J0D01*
G01*
X17352000Y-4512000D02*
G75*
G02*
X17272000Y-4512000I-40000J0D01*
G01*
X17272000Y-4512000D02*
G75*
G02*
X17352000Y-4512000I40000J0D01*
G01*
X17509000Y-6250000D02*
G75*
G02*
X17429000Y-6250000I-40000J0D01*
G01*
X17429000Y-6250000D02*
G75*
G02*
X17509000Y-6250000I40000J0D01*
G01*
X17509000Y-12200000D02*
G75*
G02*
X17429000Y-12200000I-40000J0D01*
G01*
X17429000Y-12200000D02*
G75*
G02*
X17509000Y-12200000I40000J0D01*
G01*
X17606000Y-3750000D02*
G75*
G02*
X17526000Y-3750000I-40000J0D01*
G01*
X17526000Y-3750000D02*
G75*
G02*
X17606000Y-3750000I40000J0D01*
G01*
X17606000Y-4512000D02*
G75*
G02*
X17526000Y-4512000I-40000J0D01*
G01*
X17526000Y-4512000D02*
G75*
G02*
X17606000Y-4512000I40000J0D01*
G01*
X18271000Y-6250000D02*
G75*
G02*
X18191000Y-6250000I-40000J0D01*
G01*
X18191000Y-6250000D02*
G75*
G02*
X18271000Y-6250000I40000J0D01*
G01*
X18271000Y-12200000D02*
G75*
G02*
X18191000Y-12200000I-40000J0D01*
G01*
X18191000Y-12200000D02*
G75*
G02*
X18271000Y-12200000I40000J0D01*
G01*
X18759000Y-15900000D02*
G75*
G02*
X18679000Y-15900000I-40000J0D01*
G01*
X18679000Y-15900000D02*
G75*
G02*
X18759000Y-15900000I40000J0D01*
G01*
X19028000Y-10942000D02*
G75*
G02*
X18948000Y-10942000I-40000J0D01*
G01*
X18948000Y-10942000D02*
G75*
G02*
X19028000Y-10942000I40000J0D01*
G01*
X19028000Y-11196000D02*
G75*
G02*
X18948000Y-11196000I-40000J0D01*
G01*
X18948000Y-11196000D02*
G75*
G02*
X19028000Y-11196000I40000J0D01*
G01*
X19028000Y-11450000D02*
G75*
G02*
X18948000Y-11450000I-40000J0D01*
G01*
X18948000Y-11450000D02*
G75*
G02*
X19028000Y-11450000I40000J0D01*
G01*
X19028000Y-11704000D02*
G75*
G02*
X18948000Y-11704000I-40000J0D01*
G01*
X18948000Y-11704000D02*
G75*
G02*
X19028000Y-11704000I40000J0D01*
G01*
X19028000Y-11958000D02*
G75*
G02*
X18948000Y-11958000I-40000J0D01*
G01*
X18948000Y-11958000D02*
G75*
G02*
X19028000Y-11958000I40000J0D01*
G01*
X19028000Y-12212000D02*
G75*
G02*
X18948000Y-12212000I-40000J0D01*
G01*
X18948000Y-12212000D02*
G75*
G02*
X19028000Y-12212000I40000J0D01*
G01*
X19028000Y-12466000D02*
G75*
G02*
X18948000Y-12466000I-40000J0D01*
G01*
X18948000Y-12466000D02*
G75*
G02*
X19028000Y-12466000I40000J0D01*
G01*
X19028000Y-12720000D02*
G75*
G02*
X18948000Y-12720000I-40000J0D01*
G01*
X18948000Y-12720000D02*
G75*
G02*
X19028000Y-12720000I40000J0D01*
G01*
X19028000Y-12974000D02*
G75*
G02*
X18948000Y-12974000I-40000J0D01*
G01*
X18948000Y-12974000D02*
G75*
G02*
X19028000Y-12974000I40000J0D01*
G01*
X19040000Y-5000000D02*
G75*
G02*
X18960000Y-5000000I-40000J0D01*
G01*
X18960000Y-5000000D02*
G75*
G02*
X19040000Y-5000000I40000J0D01*
G01*
X19040000Y-5254000D02*
G75*
G02*
X18960000Y-5254000I-40000J0D01*
G01*
X18960000Y-5254000D02*
G75*
G02*
X19040000Y-5254000I40000J0D01*
G01*
X19040000Y-5508000D02*
G75*
G02*
X18960000Y-5508000I-40000J0D01*
G01*
X18960000Y-5508000D02*
G75*
G02*
X19040000Y-5508000I40000J0D01*
G01*
X19040000Y-5762000D02*
G75*
G02*
X18960000Y-5762000I-40000J0D01*
G01*
X18960000Y-5762000D02*
G75*
G02*
X19040000Y-5762000I40000J0D01*
G01*
X19040000Y-6016000D02*
G75*
G02*
X18960000Y-6016000I-40000J0D01*
G01*
X18960000Y-6016000D02*
G75*
G02*
X19040000Y-6016000I40000J0D01*
G01*
X19040000Y-6270000D02*
G75*
G02*
X18960000Y-6270000I-40000J0D01*
G01*
X18960000Y-6270000D02*
G75*
G02*
X19040000Y-6270000I40000J0D01*
G01*
X19040000Y-6524000D02*
G75*
G02*
X18960000Y-6524000I-40000J0D01*
G01*
X18960000Y-6524000D02*
G75*
G02*
X19040000Y-6524000I40000J0D01*
G01*
X19040000Y-6778000D02*
G75*
G02*
X18960000Y-6778000I-40000J0D01*
G01*
X18960000Y-6778000D02*
G75*
G02*
X19040000Y-6778000I40000J0D01*
G01*
X19040000Y-7032000D02*
G75*
G02*
X18960000Y-7032000I-40000J0D01*
G01*
X18960000Y-7032000D02*
G75*
G02*
X19040000Y-7032000I40000J0D01*
G01*
X19521000Y-15900000D02*
G75*
G02*
X19441000Y-15900000I-40000J0D01*
G01*
X19441000Y-15900000D02*
G75*
G02*
X19521000Y-15900000I40000J0D01*
G01*
X19765000Y-10400000D02*
G75*
G02*
X19685000Y-10400000I-40000J0D01*
G01*
X19685000Y-10400000D02*
G75*
G02*
X19765000Y-10400000I40000J0D01*
G01*
X19790000Y-10942000D02*
G75*
G02*
X19710000Y-10942000I-40000J0D01*
G01*
X19710000Y-10942000D02*
G75*
G02*
X19790000Y-10942000I40000J0D01*
G01*
X19790000Y-11196000D02*
G75*
G02*
X19710000Y-11196000I-40000J0D01*
G01*
X19710000Y-11196000D02*
G75*
G02*
X19790000Y-11196000I40000J0D01*
G01*
X19790000Y-11450000D02*
G75*
G02*
X19710000Y-11450000I-40000J0D01*
G01*
X19710000Y-11450000D02*
G75*
G02*
X19790000Y-11450000I40000J0D01*
G01*
X19790000Y-11704000D02*
G75*
G02*
X19710000Y-11704000I-40000J0D01*
G01*
X19710000Y-11704000D02*
G75*
G02*
X19790000Y-11704000I40000J0D01*
G01*
X19790000Y-11958000D02*
G75*
G02*
X19710000Y-11958000I-40000J0D01*
G01*
X19710000Y-11958000D02*
G75*
G02*
X19790000Y-11958000I40000J0D01*
G01*
X19790000Y-12212000D02*
G75*
G02*
X19710000Y-12212000I-40000J0D01*
G01*
X19710000Y-12212000D02*
G75*
G02*
X19790000Y-12212000I40000J0D01*
G01*
X19790000Y-12466000D02*
G75*
G02*
X19710000Y-12466000I-40000J0D01*
G01*
X19710000Y-12466000D02*
G75*
G02*
X19790000Y-12466000I40000J0D01*
G01*
X19790000Y-12720000D02*
G75*
G02*
X19710000Y-12720000I-40000J0D01*
G01*
X19710000Y-12720000D02*
G75*
G02*
X19790000Y-12720000I40000J0D01*
G01*
X19790000Y-12974000D02*
G75*
G02*
X19710000Y-12974000I-40000J0D01*
G01*
X19710000Y-12974000D02*
G75*
G02*
X19790000Y-12974000I40000J0D01*
G01*
X19802000Y-5000000D02*
G75*
G02*
X19722000Y-5000000I-40000J0D01*
G01*
X19722000Y-5000000D02*
G75*
G02*
X19802000Y-5000000I40000J0D01*
G01*
X19802000Y-5254000D02*
G75*
G02*
X19722000Y-5254000I-40000J0D01*
G01*
X19722000Y-5254000D02*
G75*
G02*
X19802000Y-5254000I40000J0D01*
G01*
X19802000Y-5508000D02*
G75*
G02*
X19722000Y-5508000I-40000J0D01*
G01*
X19722000Y-5508000D02*
G75*
G02*
X19802000Y-5508000I40000J0D01*
G01*
X19802000Y-5762000D02*
G75*
G02*
X19722000Y-5762000I-40000J0D01*
G01*
X19722000Y-5762000D02*
G75*
G02*
X19802000Y-5762000I40000J0D01*
G01*
X19802000Y-6016000D02*
G75*
G02*
X19722000Y-6016000I-40000J0D01*
G01*
X19722000Y-6016000D02*
G75*
G02*
X19802000Y-6016000I40000J0D01*
G01*
X19802000Y-6270000D02*
G75*
G02*
X19722000Y-6270000I-40000J0D01*
G01*
X19722000Y-6270000D02*
G75*
G02*
X19802000Y-6270000I40000J0D01*
G01*
X19802000Y-6524000D02*
G75*
G02*
X19722000Y-6524000I-40000J0D01*
G01*
X19722000Y-6524000D02*
G75*
G02*
X19802000Y-6524000I40000J0D01*
G01*
X19802000Y-6778000D02*
G75*
G02*
X19722000Y-6778000I-40000J0D01*
G01*
X19722000Y-6778000D02*
G75*
G02*
X19802000Y-6778000I40000J0D01*
G01*
X19802000Y-7032000D02*
G75*
G02*
X19722000Y-7032000I-40000J0D01*
G01*
X19722000Y-7032000D02*
G75*
G02*
X19802000Y-7032000I40000J0D01*
G01*
X20015000Y-10400000D02*
G75*
G02*
X19935000Y-10400000I-40000J0D01*
G01*
X19935000Y-10400000D02*
G75*
G02*
X20015000Y-10400000I40000J0D01*
G01*
X20063500Y-15900000D02*
G75*
G02*
X19983500Y-15900000I-40000J0D01*
G01*
X19983500Y-15900000D02*
G75*
G02*
X20063500Y-15900000I40000J0D01*
G01*
X20065000Y-4300000D02*
G75*
G02*
X19985000Y-4300000I-40000J0D01*
G01*
X19985000Y-4300000D02*
G75*
G02*
X20065000Y-4300000I40000J0D01*
G01*
X20228000Y-7650000D02*
G75*
G02*
X20148000Y-7650000I-40000J0D01*
G01*
X20148000Y-7650000D02*
G75*
G02*
X20228000Y-7650000I40000J0D01*
G01*
X20259000Y-13950000D02*
G75*
G02*
X20179000Y-13950000I-40000J0D01*
G01*
X20179000Y-13950000D02*
G75*
G02*
X20259000Y-13950000I40000J0D01*
G01*
X20315000Y-4300000D02*
G75*
G02*
X20235000Y-4300000I-40000J0D01*
G01*
X20235000Y-4300000D02*
G75*
G02*
X20315000Y-4300000I40000J0D01*
G01*
X20317500Y-15900000D02*
G75*
G02*
X20237500Y-15900000I-40000J0D01*
G01*
X20237500Y-15900000D02*
G75*
G02*
X20317500Y-15900000I40000J0D01*
G01*
X20409000Y-15050000D02*
G75*
G02*
X20329000Y-15050000I-40000J0D01*
G01*
X20329000Y-15050000D02*
G75*
G02*
X20409000Y-15050000I40000J0D01*
G01*
X20990000Y-7650000D02*
G75*
G02*
X20910000Y-7650000I-40000J0D01*
G01*
X20910000Y-7650000D02*
G75*
G02*
X20990000Y-7650000I40000J0D01*
G01*
X21021000Y-13950000D02*
G75*
G02*
X20941000Y-13950000I-40000J0D01*
G01*
X20941000Y-13950000D02*
G75*
G02*
X21021000Y-13950000I40000J0D01*
G01*
X21036000Y-15900000D02*
G75*
G02*
X20956000Y-15900000I-40000J0D01*
G01*
X20956000Y-15900000D02*
G75*
G02*
X21036000Y-15900000I40000J0D01*
G01*
X21163000Y-15900000D02*
G75*
G02*
X21083000Y-15900000I-40000J0D01*
G01*
X21083000Y-15900000D02*
G75*
G02*
X21163000Y-15900000I40000J0D01*
G01*
X21171000Y-15050000D02*
G75*
G02*
X21091000Y-15050000I-40000J0D01*
G01*
X21091000Y-15050000D02*
G75*
G02*
X21171000Y-15050000I40000J0D01*
G01*
X21290000Y-15900000D02*
G75*
G02*
X21210000Y-15900000I-40000J0D01*
G01*
X21210000Y-15900000D02*
G75*
G02*
X21290000Y-15900000I40000J0D01*
G01*
X19272500Y-7605000D02*
X19272500Y-7695000D01*
X19227500Y-7650000D02*
X19317500Y-7650000D01*
X19272500Y-13905000D02*
X19272500Y-13995000D01*
X19227500Y-13950000D02*
X19317500Y-13950000D01*
X19526500Y-7605000D02*
X19526500Y-7695000D01*
X19481500Y-7650000D02*
X19571500Y-7650000D01*
X19526500Y-13905000D02*
X19526500Y-13995000D01*
X19481500Y-13950000D02*
X19571500Y-13950000D01*
X3735356Y-6758856D02*
X3735356Y-6688144D01*
X3664644Y-6688144D01*
X3664644Y-6758856D01*
X3735356Y-6758856D01*
X3735356Y-7012856D02*
X3735356Y-6942144D01*
X3664644Y-6942144D01*
X3664644Y-7012856D01*
X3735356Y-7012856D01*
X3735356Y-8135356D02*
X3735356Y-8064644D01*
X3664644Y-8064644D01*
X3664644Y-8135356D01*
X3735356Y-8135356D01*
X3735356Y-8389356D02*
X3735356Y-8318644D01*
X3664644Y-8318644D01*
X3664644Y-8389356D01*
X3735356Y-8389356D01*
X3735356Y-8643356D02*
X3735356Y-8572644D01*
X3664644Y-8572644D01*
X3664644Y-8643356D01*
X3735356Y-8643356D01*
X3735356Y-9931356D02*
X3735356Y-9860644D01*
X3664644Y-9860644D01*
X3664644Y-9931356D01*
X3735356Y-9931356D01*
X3735356Y-10185356D02*
X3735356Y-10114644D01*
X3664644Y-10114644D01*
X3664644Y-10185356D01*
X3735356Y-10185356D01*
X5227356Y-8735356D02*
X5227356Y-8664644D01*
X5156644Y-8664644D01*
X5156644Y-8735356D01*
X5227356Y-8735356D01*
X5227356Y-8989356D02*
X5227356Y-8918644D01*
X5156644Y-8918644D01*
X5156644Y-8989356D01*
X5227356Y-8989356D01*
X5481356Y-8735356D02*
X5481356Y-8664644D01*
X5410644Y-8664644D01*
X5410644Y-8735356D01*
X5481356Y-8735356D01*
X5481356Y-8989356D02*
X5481356Y-8918644D01*
X5410644Y-8918644D01*
X5410644Y-8989356D01*
X5481356Y-8989356D01*
X5735356Y-8735356D02*
X5735356Y-8664644D01*
X5664644Y-8664644D01*
X5664644Y-8735356D01*
X5735356Y-8735356D01*
X5735356Y-8989356D02*
X5735356Y-8918644D01*
X5664644Y-8918644D01*
X5664644Y-8989356D01*
X5735356Y-8989356D01*
X5989356Y-8735356D02*
X5989356Y-8664644D01*
X5918644Y-8664644D01*
X5918644Y-8735356D01*
X5989356Y-8735356D01*
X5989356Y-8989356D02*
X5989356Y-8918644D01*
X5918644Y-8918644D01*
X5918644Y-8989356D01*
X5989356Y-8989356D01*
X6243356Y-8735356D02*
X6243356Y-8664644D01*
X6172644Y-8664644D01*
X6172644Y-8735356D01*
X6243356Y-8735356D01*
X6243356Y-8989356D02*
X6243356Y-8918644D01*
X6172644Y-8918644D01*
X6172644Y-8989356D01*
X6243356Y-8989356D01*
X6497356Y-8735356D02*
X6497356Y-8664644D01*
X6426644Y-8664644D01*
X6426644Y-8735356D01*
X6497356Y-8735356D01*
X6497356Y-8989356D02*
X6497356Y-8918644D01*
X6426644Y-8918644D01*
X6426644Y-8989356D01*
X6497356Y-8989356D01*
X6751356Y-8735356D02*
X6751356Y-8664644D01*
X6680644Y-8664644D01*
X6680644Y-8735356D01*
X6751356Y-8735356D01*
X6751356Y-8989356D02*
X6751356Y-8918644D01*
X6680644Y-8918644D01*
X6680644Y-8989356D01*
X6751356Y-8989356D01*
X7005356Y-8735356D02*
X7005356Y-8664644D01*
X6934644Y-8664644D01*
X6934644Y-8735356D01*
X7005356Y-8735356D01*
X7005356Y-8989356D02*
X7005356Y-8918644D01*
X6934644Y-8918644D01*
X6934644Y-8989356D01*
X7005356Y-8989356D01*
X7027356Y-7235356D02*
X7027356Y-7164644D01*
X6956644Y-7164644D01*
X6956644Y-7235356D01*
X7027356Y-7235356D01*
X7259356Y-8735356D02*
X7259356Y-8664644D01*
X7188644Y-8664644D01*
X7188644Y-8735356D01*
X7259356Y-8735356D01*
X7259356Y-8989356D02*
X7259356Y-8918644D01*
X7188644Y-8918644D01*
X7188644Y-8989356D01*
X7259356Y-8989356D01*
X7281356Y-7235356D02*
X7281356Y-7164644D01*
X7210644Y-7164644D01*
X7210644Y-7235356D01*
X7281356Y-7235356D01*
X7513356Y-8735356D02*
X7513356Y-8664644D01*
X7442644Y-8664644D01*
X7442644Y-8735356D01*
X7513356Y-8735356D01*
X7513356Y-8989356D02*
X7513356Y-8918644D01*
X7442644Y-8918644D01*
X7442644Y-8989356D01*
X7513356Y-8989356D01*
X7535356Y-7235356D02*
X7535356Y-7164644D01*
X7464644Y-7164644D01*
X7464644Y-7235356D01*
X7535356Y-7235356D01*
X7767356Y-8735356D02*
X7767356Y-8664644D01*
X7696644Y-8664644D01*
X7696644Y-8735356D01*
X7767356Y-8735356D01*
X7767356Y-8989356D02*
X7767356Y-8918644D01*
X7696644Y-8918644D01*
X7696644Y-8989356D01*
X7767356Y-8989356D01*
X8021356Y-8735356D02*
X8021356Y-8664644D01*
X7950644Y-8664644D01*
X7950644Y-8735356D01*
X8021356Y-8735356D01*
X8021356Y-8989356D02*
X8021356Y-8918644D01*
X7950644Y-8918644D01*
X7950644Y-8989356D01*
X8021356Y-8989356D01*
X8275356Y-8735356D02*
X8275356Y-8664644D01*
X8204644Y-8664644D01*
X8204644Y-8735356D01*
X8275356Y-8735356D01*
X8275356Y-8989356D02*
X8275356Y-8918644D01*
X8204644Y-8918644D01*
X8204644Y-8989356D01*
X8275356Y-8989356D01*
X8529356Y-8735356D02*
X8529356Y-8664644D01*
X8458644Y-8664644D01*
X8458644Y-8735356D01*
X8529356Y-8735356D01*
X8529356Y-8989356D02*
X8529356Y-8918644D01*
X8458644Y-8918644D01*
X8458644Y-8989356D01*
X8529356Y-8989356D01*
X8682856Y-7235356D02*
X8682856Y-7164644D01*
X8612144Y-7164644D01*
X8612144Y-7235356D01*
X8682856Y-7235356D01*
X8783356Y-8735356D02*
X8783356Y-8664644D01*
X8712644Y-8664644D01*
X8712644Y-8735356D01*
X8783356Y-8735356D01*
X8783356Y-8989356D02*
X8783356Y-8918644D01*
X8712644Y-8918644D01*
X8712644Y-8989356D01*
X8783356Y-8989356D01*
X8936856Y-7235356D02*
X8936856Y-7164644D01*
X8866144Y-7164644D01*
X8866144Y-7235356D01*
X8936856Y-7235356D01*
X9037356Y-8735356D02*
X9037356Y-8664644D01*
X8966644Y-8664644D01*
X8966644Y-8735356D01*
X9037356Y-8735356D01*
X9037356Y-8989356D02*
X9037356Y-8918644D01*
X8966644Y-8918644D01*
X8966644Y-8989356D01*
X9037356Y-8989356D01*
X9190856Y-7235356D02*
X9190856Y-7164644D01*
X9120144Y-7164644D01*
X9120144Y-7235356D01*
X9190856Y-7235356D01*
X9291356Y-8735356D02*
X9291356Y-8664644D01*
X9220644Y-8664644D01*
X9220644Y-8735356D01*
X9291356Y-8735356D01*
X9291356Y-8989356D02*
X9291356Y-8918644D01*
X9220644Y-8918644D01*
X9220644Y-8989356D01*
X9291356Y-8989356D01*
X9545356Y-8735356D02*
X9545356Y-8664644D01*
X9474644Y-8664644D01*
X9474644Y-8735356D01*
X9545356Y-8735356D01*
X9545356Y-8989356D02*
X9545356Y-8918644D01*
X9474644Y-8918644D01*
X9474644Y-8989356D01*
X9545356Y-8989356D01*
X9799356Y-8735356D02*
X9799356Y-8664644D01*
X9728644Y-8664644D01*
X9728644Y-8735356D01*
X9799356Y-8735356D01*
X9799356Y-8989356D02*
X9799356Y-8918644D01*
X9728644Y-8918644D01*
X9728644Y-8989356D01*
X9799356Y-8989356D01*
X10053356Y-8735356D02*
X10053356Y-8664644D01*
X9982644Y-8664644D01*
X9982644Y-8735356D01*
X10053356Y-8735356D01*
X10053356Y-8989356D02*
X10053356Y-8918644D01*
X9982644Y-8918644D01*
X9982644Y-8989356D01*
X10053356Y-8989356D01*
X11635356Y-8881356D02*
X11635356Y-8810644D01*
X11564644Y-8810644D01*
X11564644Y-8881356D01*
X11635356Y-8881356D01*
X11635356Y-9135356D02*
X11635356Y-9064644D01*
X11564644Y-9064644D01*
X11564644Y-9135356D01*
X11635356Y-9135356D01*
X11635356Y-10035356D02*
X11635356Y-9964644D01*
X11564644Y-9964644D01*
X11564644Y-10035356D01*
X11635356Y-10035356D01*
X11635356Y-10289356D02*
X11635356Y-10218644D01*
X11564644Y-10218644D01*
X11564644Y-10289356D01*
X11635356Y-10289356D01*
X14669356Y-6935356D02*
X14669356Y-6864644D01*
X14598644Y-6864644D01*
X14598644Y-6935356D01*
X14669356Y-6935356D01*
X14923356Y-6935356D02*
X14923356Y-6864644D01*
X14852644Y-6864644D01*
X14852644Y-6935356D01*
X14923356Y-6935356D01*
X15177356Y-6935356D02*
X15177356Y-6864644D01*
X15106644Y-6864644D01*
X15106644Y-6935356D01*
X15177356Y-6935356D01*
X15431356Y-6935356D02*
X15431356Y-6864644D01*
X15360644Y-6864644D01*
X15360644Y-6935356D01*
X15431356Y-6935356D01*
X15685356Y-6935356D02*
X15685356Y-6864644D01*
X15614644Y-6864644D01*
X15614644Y-6935356D01*
X15685356Y-6935356D01*
X15939356Y-6935356D02*
X15939356Y-6864644D01*
X15868644Y-6864644D01*
X15868644Y-6935356D01*
X15939356Y-6935356D01*
X20031356Y-16585356D02*
X20031356Y-16514644D01*
X19960644Y-16514644D01*
X19960644Y-16585356D01*
X20031356Y-16585356D01*
X20285356Y-16585356D02*
X20285356Y-16514644D01*
X20214644Y-16514644D01*
X20214644Y-16585356D01*
X20285356Y-16585356D01*
D13*
X4980000Y-2570000D02*
X5050000Y-2500000D01*
X4980000Y-2430000D01*
X4910000Y-2500000D01*
X4980000Y-2570000D01*
X5488000Y-2570000D02*
X5558000Y-2500000D01*
X5488000Y-2430000D01*
X5418000Y-2500000D01*
X5488000Y-2570000D01*
X5996000Y-2570000D02*
X6066000Y-2500000D01*
X5996000Y-2430000D01*
X5926000Y-2500000D01*
X5996000Y-2570000D01*
X6504000Y-2570000D02*
X6574000Y-2500000D01*
X6504000Y-2430000D01*
X6434000Y-2500000D01*
X6504000Y-2570000D01*
X7012000Y-2570000D02*
X7082000Y-2500000D01*
X7012000Y-2430000D01*
X6942000Y-2500000D01*
X7012000Y-2570000D01*
X7520000Y-2570000D02*
X7590000Y-2500000D01*
X7520000Y-2430000D01*
X7450000Y-2500000D01*
X7520000Y-2570000D01*
X9050000Y-2570000D02*
X9120000Y-2500000D01*
X9050000Y-2430000D01*
X8980000Y-2500000D01*
X9050000Y-2570000D01*
X9558000Y-2570000D02*
X9628000Y-2500000D01*
X9558000Y-2430000D01*
X9488000Y-2500000D01*
X9558000Y-2570000D01*
X10066000Y-2570000D02*
X10136000Y-2500000D01*
X10066000Y-2430000D01*
X9996000Y-2500000D01*
X10066000Y-2570000D01*
X10574000Y-2570000D02*
X10644000Y-2500000D01*
X10574000Y-2430000D01*
X10504000Y-2500000D01*
X10574000Y-2570000D01*
X11082000Y-2570000D02*
X11152000Y-2500000D01*
X11082000Y-2430000D01*
X11012000Y-2500000D01*
X11082000Y-2570000D01*
X11590000Y-2570000D02*
X11660000Y-2500000D01*
X11590000Y-2430000D01*
X11520000Y-2500000D01*
X11590000Y-2570000D01*
X13100000Y-2570000D02*
X13170000Y-2500000D01*
X13100000Y-2430000D01*
X13030000Y-2500000D01*
X13100000Y-2570000D01*
X13608000Y-2570000D02*
X13678000Y-2500000D01*
X13608000Y-2430000D01*
X13538000Y-2500000D01*
X13608000Y-2570000D01*
X14116000Y-2570000D02*
X14186000Y-2500000D01*
X14116000Y-2430000D01*
X14046000Y-2500000D01*
X14116000Y-2570000D01*
X14624000Y-2570000D02*
X14694000Y-2500000D01*
X14624000Y-2430000D01*
X14554000Y-2500000D01*
X14624000Y-2570000D01*
X15132000Y-2570000D02*
X15202000Y-2500000D01*
X15132000Y-2430000D01*
X15062000Y-2500000D01*
X15132000Y-2570000D01*
X15492000Y-16120000D02*
X15562000Y-16050000D01*
X15492000Y-15980000D01*
X15422000Y-16050000D01*
X15492000Y-16120000D01*
X15640000Y-2570000D02*
X15710000Y-2500000D01*
X15640000Y-2430000D01*
X15570000Y-2500000D01*
X15640000Y-2570000D01*
X16000000Y-16120000D02*
X16070000Y-16050000D01*
X16000000Y-15980000D01*
X15930000Y-16050000D01*
X16000000Y-16120000D01*
X17150000Y-2570000D02*
X17220000Y-2500000D01*
X17150000Y-2430000D01*
X17080000Y-2500000D01*
X17150000Y-2570000D01*
X17550000Y-16120000D02*
X17620000Y-16050000D01*
X17550000Y-15980000D01*
X17480000Y-16050000D01*
X17550000Y-16120000D01*
X17658000Y-2570000D02*
X17728000Y-2500000D01*
X17658000Y-2430000D01*
X17588000Y-2500000D01*
X17658000Y-2570000D01*
X18058000Y-16120000D02*
X18128000Y-16050000D01*
X18058000Y-15980000D01*
X17988000Y-16050000D01*
X18058000Y-16120000D01*
X18166000Y-2570000D02*
X18236000Y-2500000D01*
X18166000Y-2430000D01*
X18096000Y-2500000D01*
X18166000Y-2570000D01*
X18674000Y-2570000D02*
X18744000Y-2500000D01*
X18674000Y-2430000D01*
X18604000Y-2500000D01*
X18674000Y-2570000D01*
X19182000Y-2570000D02*
X19252000Y-2500000D01*
X19182000Y-2430000D01*
X19112000Y-2500000D01*
X19182000Y-2570000D01*
X19690000Y-2570000D02*
X19760000Y-2500000D01*
X19690000Y-2430000D01*
X19620000Y-2500000D01*
X19690000Y-2570000D01*
X22100000Y-3898000D02*
X22170000Y-3828000D01*
X22100000Y-3758000D01*
X22030000Y-3828000D01*
X22100000Y-3898000D01*
X22100000Y-4406000D02*
X22170000Y-4336000D01*
X22100000Y-4266000D01*
X22030000Y-4336000D01*
X22100000Y-4406000D01*
X22100000Y-4914000D02*
X22170000Y-4844000D01*
X22100000Y-4774000D01*
X22030000Y-4844000D01*
X22100000Y-4914000D01*
X22100000Y-5422000D02*
X22170000Y-5352000D01*
X22100000Y-5282000D01*
X22030000Y-5352000D01*
X22100000Y-5422000D01*
X22100000Y-5930000D02*
X22170000Y-5860000D01*
X22100000Y-5790000D01*
X22030000Y-5860000D01*
X22100000Y-5930000D01*
X22100000Y-6438000D02*
X22170000Y-6368000D01*
X22100000Y-6298000D01*
X22030000Y-6368000D01*
X22100000Y-6438000D01*
X22100000Y-6946000D02*
X22170000Y-6876000D01*
X22100000Y-6806000D01*
X22030000Y-6876000D01*
X22100000Y-6946000D01*
X22100000Y-7454000D02*
X22170000Y-7384000D01*
X22100000Y-7314000D01*
X22030000Y-7384000D01*
X22100000Y-7454000D01*
X22100000Y-7962000D02*
X22170000Y-7892000D01*
X22100000Y-7822000D01*
X22030000Y-7892000D01*
X22100000Y-7962000D01*
X22100000Y-8470000D02*
X22170000Y-8400000D01*
X22100000Y-8330000D01*
X22030000Y-8400000D01*
X22100000Y-8470000D01*
X22100000Y-9998000D02*
X22170000Y-9928000D01*
X22100000Y-9858000D01*
X22030000Y-9928000D01*
X22100000Y-9998000D01*
X22100000Y-10506000D02*
X22170000Y-10436000D01*
X22100000Y-10366000D01*
X22030000Y-10436000D01*
X22100000Y-10506000D01*
X22100000Y-11014000D02*
X22170000Y-10944000D01*
X22100000Y-10874000D01*
X22030000Y-10944000D01*
X22100000Y-11014000D01*
X22100000Y-11522000D02*
X22170000Y-11452000D01*
X22100000Y-11382000D01*
X22030000Y-11452000D01*
X22100000Y-11522000D01*
X22100000Y-12030000D02*
X22170000Y-11960000D01*
X22100000Y-11890000D01*
X22030000Y-11960000D01*
X22100000Y-12030000D01*
X22100000Y-12538000D02*
X22170000Y-12468000D01*
X22100000Y-12398000D01*
X22030000Y-12468000D01*
X22100000Y-12538000D01*
X22100000Y-13046000D02*
X22170000Y-12976000D01*
X22100000Y-12906000D01*
X22030000Y-12976000D01*
X22100000Y-13046000D01*
X22100000Y-13554000D02*
X22170000Y-13484000D01*
X22100000Y-13414000D01*
X22030000Y-13484000D01*
X22100000Y-13554000D01*
X22100000Y-14062000D02*
X22170000Y-13992000D01*
X22100000Y-13922000D01*
X22030000Y-13992000D01*
X22100000Y-14062000D01*
X22100000Y-14570000D02*
X22170000Y-14500000D01*
X22100000Y-14430000D01*
X22030000Y-14500000D01*
X22100000Y-14570000D01*
D11*
X3326977Y-17720984D02*
X3326977Y-17520984D01*
X3326977Y-17520984D02*
X3374596Y-17520984D01*
X3374596Y-17520984D02*
X3403167Y-17530508D01*
X3403167Y-17530508D02*
X3422215Y-17549555D01*
X3422215Y-17549555D02*
X3431739Y-17568603D01*
X3431739Y-17568603D02*
X3441262Y-17606698D01*
X3441262Y-17606698D02*
X3441262Y-17635270D01*
X3441262Y-17635270D02*
X3431739Y-17673365D01*
X3431739Y-17673365D02*
X3422215Y-17692412D01*
X3422215Y-17692412D02*
X3403167Y-17711460D01*
X3403167Y-17711460D02*
X3374596Y-17720984D01*
X3374596Y-17720984D02*
X3326977Y-17720984D01*
X3526977Y-17720984D02*
X3526977Y-17587650D01*
X3526977Y-17625746D02*
X3536501Y-17606698D01*
X3536501Y-17606698D02*
X3546024Y-17597174D01*
X3546024Y-17597174D02*
X3565072Y-17587650D01*
X3565072Y-17587650D02*
X3584120Y-17587650D01*
X3650786Y-17720984D02*
X3650786Y-17587650D01*
X3650786Y-17520984D02*
X3641262Y-17530508D01*
X3641262Y-17530508D02*
X3650786Y-17540031D01*
X3650786Y-17540031D02*
X3660310Y-17530508D01*
X3660310Y-17530508D02*
X3650786Y-17520984D01*
X3650786Y-17520984D02*
X3650786Y-17540031D01*
X3774596Y-17720984D02*
X3755548Y-17711460D01*
X3755548Y-17711460D02*
X3746024Y-17692412D01*
X3746024Y-17692412D02*
X3746024Y-17520984D01*
X3879358Y-17720984D02*
X3860310Y-17711460D01*
X3860310Y-17711460D02*
X3850786Y-17692412D01*
X3850786Y-17692412D02*
X3850786Y-17520984D01*
X4107929Y-17720984D02*
X4107929Y-17520984D01*
X4107929Y-17520984D02*
X4174596Y-17663841D01*
X4174596Y-17663841D02*
X4241263Y-17520984D01*
X4241263Y-17520984D02*
X4241263Y-17720984D01*
X4422215Y-17720984D02*
X4422215Y-17616222D01*
X4422215Y-17616222D02*
X4412691Y-17597174D01*
X4412691Y-17597174D02*
X4393644Y-17587650D01*
X4393644Y-17587650D02*
X4355548Y-17587650D01*
X4355548Y-17587650D02*
X4336501Y-17597174D01*
X4422215Y-17711460D02*
X4403167Y-17720984D01*
X4403167Y-17720984D02*
X4355548Y-17720984D01*
X4355548Y-17720984D02*
X4336501Y-17711460D01*
X4336501Y-17711460D02*
X4326977Y-17692412D01*
X4326977Y-17692412D02*
X4326977Y-17673365D01*
X4326977Y-17673365D02*
X4336501Y-17654317D01*
X4336501Y-17654317D02*
X4355548Y-17644793D01*
X4355548Y-17644793D02*
X4403167Y-17644793D01*
X4403167Y-17644793D02*
X4422215Y-17635270D01*
X4517453Y-17587650D02*
X4517453Y-17787650D01*
X4517453Y-17597174D02*
X4536501Y-17587650D01*
X4536501Y-17587650D02*
X4574596Y-17587650D01*
X4574596Y-17587650D02*
X4593644Y-17597174D01*
X4593644Y-17597174D02*
X4603167Y-17606698D01*
X4603167Y-17606698D02*
X4612691Y-17625746D01*
X4612691Y-17625746D02*
X4612691Y-17682889D01*
X4612691Y-17682889D02*
X4603167Y-17701936D01*
X4603167Y-17701936D02*
X4593644Y-17711460D01*
X4593644Y-17711460D02*
X4574596Y-17720984D01*
X4574596Y-17720984D02*
X4536501Y-17720984D01*
X4536501Y-17720984D02*
X4517453Y-17711460D01*
X4698405Y-17701936D02*
X4707929Y-17711460D01*
X4707929Y-17711460D02*
X4698405Y-17720984D01*
X4698405Y-17720984D02*
X4688882Y-17711460D01*
X4688882Y-17711460D02*
X4698405Y-17701936D01*
X4698405Y-17701936D02*
X4698405Y-17720984D01*
X4698405Y-17597174D02*
X4707929Y-17606698D01*
X4707929Y-17606698D02*
X4698405Y-17616222D01*
X4698405Y-17616222D02*
X4688882Y-17606698D01*
X4688882Y-17606698D02*
X4698405Y-17597174D01*
X4698405Y-17597174D02*
X4698405Y-17616222D01*
D12*
X3036200Y-18034500D02*
X3066200Y-18064500D01*
X3066200Y-18034500D02*
X3036200Y-18064500D01*
D11*
X3365072Y-17940984D02*
X3384120Y-17940984D01*
X3384120Y-17940984D02*
X3403167Y-17950508D01*
X3403167Y-17950508D02*
X3412691Y-17960031D01*
X3412691Y-17960031D02*
X3422215Y-17979079D01*
X3422215Y-17979079D02*
X3431739Y-18017174D01*
X3431739Y-18017174D02*
X3431739Y-18064793D01*
X3431739Y-18064793D02*
X3422215Y-18102889D01*
X3422215Y-18102889D02*
X3412691Y-18121936D01*
X3412691Y-18121936D02*
X3403167Y-18131460D01*
X3403167Y-18131460D02*
X3384120Y-18140984D01*
X3384120Y-18140984D02*
X3365072Y-18140984D01*
X3365072Y-18140984D02*
X3346024Y-18131460D01*
X3346024Y-18131460D02*
X3336501Y-18121936D01*
X3336501Y-18121936D02*
X3326977Y-18102889D01*
X3326977Y-18102889D02*
X3317453Y-18064793D01*
X3317453Y-18064793D02*
X3317453Y-18017174D01*
X3317453Y-18017174D02*
X3326977Y-17979079D01*
X3326977Y-17979079D02*
X3336501Y-17960031D01*
X3336501Y-17960031D02*
X3346024Y-17950508D01*
X3346024Y-17950508D02*
X3365072Y-17940984D01*
X3517453Y-18121936D02*
X3526977Y-18131460D01*
X3526977Y-18131460D02*
X3517453Y-18140984D01*
X3517453Y-18140984D02*
X3507929Y-18131460D01*
X3507929Y-18131460D02*
X3517453Y-18121936D01*
X3517453Y-18121936D02*
X3517453Y-18140984D01*
X3593643Y-17940984D02*
X3717453Y-17940984D01*
X3717453Y-17940984D02*
X3650786Y-18017174D01*
X3650786Y-18017174D02*
X3679358Y-18017174D01*
X3679358Y-18017174D02*
X3698405Y-18026698D01*
X3698405Y-18026698D02*
X3707929Y-18036222D01*
X3707929Y-18036222D02*
X3717453Y-18055270D01*
X3717453Y-18055270D02*
X3717453Y-18102889D01*
X3717453Y-18102889D02*
X3707929Y-18121936D01*
X3707929Y-18121936D02*
X3698405Y-18131460D01*
X3698405Y-18131460D02*
X3679358Y-18140984D01*
X3679358Y-18140984D02*
X3622215Y-18140984D01*
X3622215Y-18140984D02*
X3603167Y-18131460D01*
X3603167Y-18131460D02*
X3593643Y-18121936D01*
X3841262Y-17940984D02*
X3860310Y-17940984D01*
X3860310Y-17940984D02*
X3879358Y-17950508D01*
X3879358Y-17950508D02*
X3888882Y-17960031D01*
X3888882Y-17960031D02*
X3898405Y-17979079D01*
X3898405Y-17979079D02*
X3907929Y-18017174D01*
X3907929Y-18017174D02*
X3907929Y-18064793D01*
X3907929Y-18064793D02*
X3898405Y-18102889D01*
X3898405Y-18102889D02*
X3888882Y-18121936D01*
X3888882Y-18121936D02*
X3879358Y-18131460D01*
X3879358Y-18131460D02*
X3860310Y-18140984D01*
X3860310Y-18140984D02*
X3841262Y-18140984D01*
X3841262Y-18140984D02*
X3822215Y-18131460D01*
X3822215Y-18131460D02*
X3812691Y-18121936D01*
X3812691Y-18121936D02*
X3803167Y-18102889D01*
X3803167Y-18102889D02*
X3793643Y-18064793D01*
X3793643Y-18064793D02*
X3793643Y-18017174D01*
X3793643Y-18017174D02*
X3803167Y-17979079D01*
X3803167Y-17979079D02*
X3812691Y-17960031D01*
X3812691Y-17960031D02*
X3822215Y-17950508D01*
X3822215Y-17950508D02*
X3841262Y-17940984D01*
X4031739Y-17940984D02*
X4050786Y-17940984D01*
X4050786Y-17940984D02*
X4069834Y-17950508D01*
X4069834Y-17950508D02*
X4079358Y-17960031D01*
X4079358Y-17960031D02*
X4088882Y-17979079D01*
X4088882Y-17979079D02*
X4098405Y-18017174D01*
X4098405Y-18017174D02*
X4098405Y-18064793D01*
X4098405Y-18064793D02*
X4088882Y-18102889D01*
X4088882Y-18102889D02*
X4079358Y-18121936D01*
X4079358Y-18121936D02*
X4069834Y-18131460D01*
X4069834Y-18131460D02*
X4050786Y-18140984D01*
X4050786Y-18140984D02*
X4031739Y-18140984D01*
X4031739Y-18140984D02*
X4012691Y-18131460D01*
X4012691Y-18131460D02*
X4003167Y-18121936D01*
X4003167Y-18121936D02*
X3993643Y-18102889D01*
X3993643Y-18102889D02*
X3984120Y-18064793D01*
X3984120Y-18064793D02*
X3984120Y-18017174D01*
X3984120Y-18017174D02*
X3993643Y-17979079D01*
X3993643Y-17979079D02*
X4003167Y-17960031D01*
X4003167Y-17960031D02*
X4012691Y-17950508D01*
X4012691Y-17950508D02*
X4031739Y-17940984D01*
X4184120Y-18140984D02*
X4184120Y-18007650D01*
X4184120Y-18026698D02*
X4193643Y-18017174D01*
X4193643Y-18017174D02*
X4212691Y-18007650D01*
X4212691Y-18007650D02*
X4241263Y-18007650D01*
X4241263Y-18007650D02*
X4260310Y-18017174D01*
X4260310Y-18017174D02*
X4269834Y-18036222D01*
X4269834Y-18036222D02*
X4269834Y-18140984D01*
X4269834Y-18036222D02*
X4279358Y-18017174D01*
X4279358Y-18017174D02*
X4298405Y-18007650D01*
X4298405Y-18007650D02*
X4326977Y-18007650D01*
X4326977Y-18007650D02*
X4346025Y-18017174D01*
X4346025Y-18017174D02*
X4355548Y-18036222D01*
X4355548Y-18036222D02*
X4355548Y-18140984D01*
X4450786Y-18140984D02*
X4450786Y-18007650D01*
X4450786Y-18026698D02*
X4460310Y-18017174D01*
X4460310Y-18017174D02*
X4479358Y-18007650D01*
X4479358Y-18007650D02*
X4507929Y-18007650D01*
X4507929Y-18007650D02*
X4526977Y-18017174D01*
X4526977Y-18017174D02*
X4536501Y-18036222D01*
X4536501Y-18036222D02*
X4536501Y-18140984D01*
X4536501Y-18036222D02*
X4546025Y-18017174D01*
X4546025Y-18017174D02*
X4565072Y-18007650D01*
X4565072Y-18007650D02*
X4593644Y-18007650D01*
X4593644Y-18007650D02*
X4612691Y-18017174D01*
X4612691Y-18017174D02*
X4622215Y-18036222D01*
X4622215Y-18036222D02*
X4622215Y-18140984D01*
X5012691Y-17931460D02*
X4841263Y-18188603D01*
X5269834Y-17940984D02*
X5288882Y-17940984D01*
X5288882Y-17940984D02*
X5307929Y-17950508D01*
X5307929Y-17950508D02*
X5317453Y-17960031D01*
X5317453Y-17960031D02*
X5326977Y-17979079D01*
X5326977Y-17979079D02*
X5336501Y-18017174D01*
X5336501Y-18017174D02*
X5336501Y-18064793D01*
X5336501Y-18064793D02*
X5326977Y-18102889D01*
X5326977Y-18102889D02*
X5317453Y-18121936D01*
X5317453Y-18121936D02*
X5307929Y-18131460D01*
X5307929Y-18131460D02*
X5288882Y-18140984D01*
X5288882Y-18140984D02*
X5269834Y-18140984D01*
X5269834Y-18140984D02*
X5250787Y-18131460D01*
X5250787Y-18131460D02*
X5241263Y-18121936D01*
X5241263Y-18121936D02*
X5231739Y-18102889D01*
X5231739Y-18102889D02*
X5222215Y-18064793D01*
X5222215Y-18064793D02*
X5222215Y-18017174D01*
X5222215Y-18017174D02*
X5231739Y-17979079D01*
X5231739Y-17979079D02*
X5241263Y-17960031D01*
X5241263Y-17960031D02*
X5250787Y-17950508D01*
X5250787Y-17950508D02*
X5269834Y-17940984D01*
X5422215Y-18121936D02*
X5431739Y-18131460D01*
X5431739Y-18131460D02*
X5422215Y-18140984D01*
X5422215Y-18140984D02*
X5412691Y-18131460D01*
X5412691Y-18131460D02*
X5422215Y-18121936D01*
X5422215Y-18121936D02*
X5422215Y-18140984D01*
X5555548Y-17940984D02*
X5574596Y-17940984D01*
X5574596Y-17940984D02*
X5593644Y-17950508D01*
X5593644Y-17950508D02*
X5603167Y-17960031D01*
X5603167Y-17960031D02*
X5612691Y-17979079D01*
X5612691Y-17979079D02*
X5622215Y-18017174D01*
X5622215Y-18017174D02*
X5622215Y-18064793D01*
X5622215Y-18064793D02*
X5612691Y-18102889D01*
X5612691Y-18102889D02*
X5603167Y-18121936D01*
X5603167Y-18121936D02*
X5593644Y-18131460D01*
X5593644Y-18131460D02*
X5574596Y-18140984D01*
X5574596Y-18140984D02*
X5555548Y-18140984D01*
X5555548Y-18140984D02*
X5536501Y-18131460D01*
X5536501Y-18131460D02*
X5526977Y-18121936D01*
X5526977Y-18121936D02*
X5517453Y-18102889D01*
X5517453Y-18102889D02*
X5507929Y-18064793D01*
X5507929Y-18064793D02*
X5507929Y-18017174D01*
X5507929Y-18017174D02*
X5517453Y-17979079D01*
X5517453Y-17979079D02*
X5526977Y-17960031D01*
X5526977Y-17960031D02*
X5536501Y-17950508D01*
X5536501Y-17950508D02*
X5555548Y-17940984D01*
X5812691Y-18140984D02*
X5698406Y-18140984D01*
X5755548Y-18140984D02*
X5755548Y-17940984D01*
X5755548Y-17940984D02*
X5736501Y-17969555D01*
X5736501Y-17969555D02*
X5717453Y-17988603D01*
X5717453Y-17988603D02*
X5698406Y-17998127D01*
X6003167Y-18140984D02*
X5888882Y-18140984D01*
X5946025Y-18140984D02*
X5946025Y-17940984D01*
X5946025Y-17940984D02*
X5926977Y-17969555D01*
X5926977Y-17969555D02*
X5907929Y-17988603D01*
X5907929Y-17988603D02*
X5888882Y-17998127D01*
X6117453Y-18026698D02*
X6098406Y-18017174D01*
X6098406Y-18017174D02*
X6088882Y-18007650D01*
X6088882Y-18007650D02*
X6079358Y-17988603D01*
X6079358Y-17988603D02*
X6079358Y-17979079D01*
X6079358Y-17979079D02*
X6088882Y-17960031D01*
X6088882Y-17960031D02*
X6098406Y-17950508D01*
X6098406Y-17950508D02*
X6117453Y-17940984D01*
X6117453Y-17940984D02*
X6155548Y-17940984D01*
X6155548Y-17940984D02*
X6174596Y-17950508D01*
X6174596Y-17950508D02*
X6184120Y-17960031D01*
X6184120Y-17960031D02*
X6193644Y-17979079D01*
X6193644Y-17979079D02*
X6193644Y-17988603D01*
X6193644Y-17988603D02*
X6184120Y-18007650D01*
X6184120Y-18007650D02*
X6174596Y-18017174D01*
X6174596Y-18017174D02*
X6155548Y-18026698D01*
X6155548Y-18026698D02*
X6117453Y-18026698D01*
X6117453Y-18026698D02*
X6098406Y-18036222D01*
X6098406Y-18036222D02*
X6088882Y-18045746D01*
X6088882Y-18045746D02*
X6079358Y-18064793D01*
X6079358Y-18064793D02*
X6079358Y-18102889D01*
X6079358Y-18102889D02*
X6088882Y-18121936D01*
X6088882Y-18121936D02*
X6098406Y-18131460D01*
X6098406Y-18131460D02*
X6117453Y-18140984D01*
X6117453Y-18140984D02*
X6155548Y-18140984D01*
X6155548Y-18140984D02*
X6174596Y-18131460D01*
X6174596Y-18131460D02*
X6184120Y-18121936D01*
X6184120Y-18121936D02*
X6193644Y-18102889D01*
X6193644Y-18102889D02*
X6193644Y-18064793D01*
X6193644Y-18064793D02*
X6184120Y-18045746D01*
X6184120Y-18045746D02*
X6174596Y-18036222D01*
X6174596Y-18036222D02*
X6155548Y-18026698D01*
X6269834Y-17940984D02*
X6269834Y-17979079D01*
X6346025Y-17940984D02*
X6346025Y-17979079D01*
X6641263Y-18217174D02*
X6631739Y-18207650D01*
X6631739Y-18207650D02*
X6612691Y-18179079D01*
X6612691Y-18179079D02*
X6603168Y-18160031D01*
X6603168Y-18160031D02*
X6593644Y-18131460D01*
X6593644Y-18131460D02*
X6584120Y-18083841D01*
X6584120Y-18083841D02*
X6584120Y-18045746D01*
X6584120Y-18045746D02*
X6593644Y-17998127D01*
X6593644Y-17998127D02*
X6603168Y-17969555D01*
X6603168Y-17969555D02*
X6612691Y-17950508D01*
X6612691Y-17950508D02*
X6631739Y-17921936D01*
X6631739Y-17921936D02*
X6641263Y-17912412D01*
X6707929Y-17960031D02*
X6717453Y-17950508D01*
X6717453Y-17950508D02*
X6736501Y-17940984D01*
X6736501Y-17940984D02*
X6784120Y-17940984D01*
X6784120Y-17940984D02*
X6803168Y-17950508D01*
X6803168Y-17950508D02*
X6812691Y-17960031D01*
X6812691Y-17960031D02*
X6822215Y-17979079D01*
X6822215Y-17979079D02*
X6822215Y-17998127D01*
X6822215Y-17998127D02*
X6812691Y-18026698D01*
X6812691Y-18026698D02*
X6698406Y-18140984D01*
X6698406Y-18140984D02*
X6822215Y-18140984D01*
X6946025Y-17940984D02*
X6965072Y-17940984D01*
X6965072Y-17940984D02*
X6984120Y-17950508D01*
X6984120Y-17950508D02*
X6993644Y-17960031D01*
X6993644Y-17960031D02*
X7003168Y-17979079D01*
X7003168Y-17979079D02*
X7012691Y-18017174D01*
X7012691Y-18017174D02*
X7012691Y-18064793D01*
X7012691Y-18064793D02*
X7003168Y-18102889D01*
X7003168Y-18102889D02*
X6993644Y-18121936D01*
X6993644Y-18121936D02*
X6984120Y-18131460D01*
X6984120Y-18131460D02*
X6965072Y-18140984D01*
X6965072Y-18140984D02*
X6946025Y-18140984D01*
X6946025Y-18140984D02*
X6926977Y-18131460D01*
X6926977Y-18131460D02*
X6917453Y-18121936D01*
X6917453Y-18121936D02*
X6907929Y-18102889D01*
X6907929Y-18102889D02*
X6898406Y-18064793D01*
X6898406Y-18064793D02*
X6898406Y-18017174D01*
X6898406Y-18017174D02*
X6907929Y-17979079D01*
X6907929Y-17979079D02*
X6917453Y-17960031D01*
X6917453Y-17960031D02*
X6926977Y-17950508D01*
X6926977Y-17950508D02*
X6946025Y-17940984D01*
X7250787Y-18140984D02*
X7250787Y-17940984D01*
X7336501Y-18140984D02*
X7336501Y-18036222D01*
X7336501Y-18036222D02*
X7326977Y-18017174D01*
X7326977Y-18017174D02*
X7307930Y-18007650D01*
X7307930Y-18007650D02*
X7279358Y-18007650D01*
X7279358Y-18007650D02*
X7260310Y-18017174D01*
X7260310Y-18017174D02*
X7250787Y-18026698D01*
X7460310Y-18140984D02*
X7441263Y-18131460D01*
X7441263Y-18131460D02*
X7431739Y-18121936D01*
X7431739Y-18121936D02*
X7422215Y-18102889D01*
X7422215Y-18102889D02*
X7422215Y-18045746D01*
X7422215Y-18045746D02*
X7431739Y-18026698D01*
X7431739Y-18026698D02*
X7441263Y-18017174D01*
X7441263Y-18017174D02*
X7460310Y-18007650D01*
X7460310Y-18007650D02*
X7488882Y-18007650D01*
X7488882Y-18007650D02*
X7507930Y-18017174D01*
X7507930Y-18017174D02*
X7517453Y-18026698D01*
X7517453Y-18026698D02*
X7526977Y-18045746D01*
X7526977Y-18045746D02*
X7526977Y-18102889D01*
X7526977Y-18102889D02*
X7517453Y-18121936D01*
X7517453Y-18121936D02*
X7507930Y-18131460D01*
X7507930Y-18131460D02*
X7488882Y-18140984D01*
X7488882Y-18140984D02*
X7460310Y-18140984D01*
X7641263Y-18140984D02*
X7622215Y-18131460D01*
X7622215Y-18131460D02*
X7612691Y-18112412D01*
X7612691Y-18112412D02*
X7612691Y-17940984D01*
X7793644Y-18131460D02*
X7774596Y-18140984D01*
X7774596Y-18140984D02*
X7736501Y-18140984D01*
X7736501Y-18140984D02*
X7717453Y-18131460D01*
X7717453Y-18131460D02*
X7707930Y-18112412D01*
X7707930Y-18112412D02*
X7707930Y-18036222D01*
X7707930Y-18036222D02*
X7717453Y-18017174D01*
X7717453Y-18017174D02*
X7736501Y-18007650D01*
X7736501Y-18007650D02*
X7774596Y-18007650D01*
X7774596Y-18007650D02*
X7793644Y-18017174D01*
X7793644Y-18017174D02*
X7803168Y-18036222D01*
X7803168Y-18036222D02*
X7803168Y-18055270D01*
X7803168Y-18055270D02*
X7707930Y-18074317D01*
X7879358Y-18131460D02*
X7898406Y-18140984D01*
X7898406Y-18140984D02*
X7936501Y-18140984D01*
X7936501Y-18140984D02*
X7955549Y-18131460D01*
X7955549Y-18131460D02*
X7965072Y-18112412D01*
X7965072Y-18112412D02*
X7965072Y-18102889D01*
X7965072Y-18102889D02*
X7955549Y-18083841D01*
X7955549Y-18083841D02*
X7936501Y-18074317D01*
X7936501Y-18074317D02*
X7907930Y-18074317D01*
X7907930Y-18074317D02*
X7888882Y-18064793D01*
X7888882Y-18064793D02*
X7879358Y-18045746D01*
X7879358Y-18045746D02*
X7879358Y-18036222D01*
X7879358Y-18036222D02*
X7888882Y-18017174D01*
X7888882Y-18017174D02*
X7907930Y-18007650D01*
X7907930Y-18007650D02*
X7936501Y-18007650D01*
X7936501Y-18007650D02*
X7955549Y-18017174D01*
X8031739Y-18217174D02*
X8041263Y-18207650D01*
X8041263Y-18207650D02*
X8060311Y-18179079D01*
X8060311Y-18179079D02*
X8069834Y-18160031D01*
X8069834Y-18160031D02*
X8079358Y-18131460D01*
X8079358Y-18131460D02*
X8088882Y-18083841D01*
X8088882Y-18083841D02*
X8088882Y-18045746D01*
X8088882Y-18045746D02*
X8079358Y-17998127D01*
X8079358Y-17998127D02*
X8069834Y-17969555D01*
X8069834Y-17969555D02*
X8060311Y-17950508D01*
X8060311Y-17950508D02*
X8041263Y-17921936D01*
X8041263Y-17921936D02*
X8031739Y-17912412D01*
D12*
X3066200Y-18313500D02*
G75*
G02*
X2986200Y-18313500I-40000J0D01*
G01*
X2986200Y-18313500D02*
G75*
G02*
X3066200Y-18313500I40000J0D01*
G01*
D11*
X3365072Y-18204984D02*
X3384120Y-18204984D01*
X3384120Y-18204984D02*
X3403167Y-18214508D01*
X3403167Y-18214508D02*
X3412691Y-18224031D01*
X3412691Y-18224031D02*
X3422215Y-18243079D01*
X3422215Y-18243079D02*
X3431739Y-18281174D01*
X3431739Y-18281174D02*
X3431739Y-18328793D01*
X3431739Y-18328793D02*
X3422215Y-18366889D01*
X3422215Y-18366889D02*
X3412691Y-18385936D01*
X3412691Y-18385936D02*
X3403167Y-18395460D01*
X3403167Y-18395460D02*
X3384120Y-18404984D01*
X3384120Y-18404984D02*
X3365072Y-18404984D01*
X3365072Y-18404984D02*
X3346024Y-18395460D01*
X3346024Y-18395460D02*
X3336501Y-18385936D01*
X3336501Y-18385936D02*
X3326977Y-18366889D01*
X3326977Y-18366889D02*
X3317453Y-18328793D01*
X3317453Y-18328793D02*
X3317453Y-18281174D01*
X3317453Y-18281174D02*
X3326977Y-18243079D01*
X3326977Y-18243079D02*
X3336501Y-18224031D01*
X3336501Y-18224031D02*
X3346024Y-18214508D01*
X3346024Y-18214508D02*
X3365072Y-18204984D01*
X3517453Y-18385936D02*
X3526977Y-18395460D01*
X3526977Y-18395460D02*
X3517453Y-18404984D01*
X3517453Y-18404984D02*
X3507929Y-18395460D01*
X3507929Y-18395460D02*
X3517453Y-18385936D01*
X3517453Y-18385936D02*
X3517453Y-18404984D01*
X3641262Y-18290698D02*
X3622215Y-18281174D01*
X3622215Y-18281174D02*
X3612691Y-18271650D01*
X3612691Y-18271650D02*
X3603167Y-18252603D01*
X3603167Y-18252603D02*
X3603167Y-18243079D01*
X3603167Y-18243079D02*
X3612691Y-18224031D01*
X3612691Y-18224031D02*
X3622215Y-18214508D01*
X3622215Y-18214508D02*
X3641262Y-18204984D01*
X3641262Y-18204984D02*
X3679358Y-18204984D01*
X3679358Y-18204984D02*
X3698405Y-18214508D01*
X3698405Y-18214508D02*
X3707929Y-18224031D01*
X3707929Y-18224031D02*
X3717453Y-18243079D01*
X3717453Y-18243079D02*
X3717453Y-18252603D01*
X3717453Y-18252603D02*
X3707929Y-18271650D01*
X3707929Y-18271650D02*
X3698405Y-18281174D01*
X3698405Y-18281174D02*
X3679358Y-18290698D01*
X3679358Y-18290698D02*
X3641262Y-18290698D01*
X3641262Y-18290698D02*
X3622215Y-18300222D01*
X3622215Y-18300222D02*
X3612691Y-18309746D01*
X3612691Y-18309746D02*
X3603167Y-18328793D01*
X3603167Y-18328793D02*
X3603167Y-18366889D01*
X3603167Y-18366889D02*
X3612691Y-18385936D01*
X3612691Y-18385936D02*
X3622215Y-18395460D01*
X3622215Y-18395460D02*
X3641262Y-18404984D01*
X3641262Y-18404984D02*
X3679358Y-18404984D01*
X3679358Y-18404984D02*
X3698405Y-18395460D01*
X3698405Y-18395460D02*
X3707929Y-18385936D01*
X3707929Y-18385936D02*
X3717453Y-18366889D01*
X3717453Y-18366889D02*
X3717453Y-18328793D01*
X3717453Y-18328793D02*
X3707929Y-18309746D01*
X3707929Y-18309746D02*
X3698405Y-18300222D01*
X3698405Y-18300222D02*
X3679358Y-18290698D01*
X3841262Y-18204984D02*
X3860310Y-18204984D01*
X3860310Y-18204984D02*
X3879358Y-18214508D01*
X3879358Y-18214508D02*
X3888882Y-18224031D01*
X3888882Y-18224031D02*
X3898405Y-18243079D01*
X3898405Y-18243079D02*
X3907929Y-18281174D01*
X3907929Y-18281174D02*
X3907929Y-18328793D01*
X3907929Y-18328793D02*
X3898405Y-18366889D01*
X3898405Y-18366889D02*
X3888882Y-18385936D01*
X3888882Y-18385936D02*
X3879358Y-18395460D01*
X3879358Y-18395460D02*
X3860310Y-18404984D01*
X3860310Y-18404984D02*
X3841262Y-18404984D01*
X3841262Y-18404984D02*
X3822215Y-18395460D01*
X3822215Y-18395460D02*
X3812691Y-18385936D01*
X3812691Y-18385936D02*
X3803167Y-18366889D01*
X3803167Y-18366889D02*
X3793643Y-18328793D01*
X3793643Y-18328793D02*
X3793643Y-18281174D01*
X3793643Y-18281174D02*
X3803167Y-18243079D01*
X3803167Y-18243079D02*
X3812691Y-18224031D01*
X3812691Y-18224031D02*
X3822215Y-18214508D01*
X3822215Y-18214508D02*
X3841262Y-18204984D01*
X4031739Y-18204984D02*
X4050786Y-18204984D01*
X4050786Y-18204984D02*
X4069834Y-18214508D01*
X4069834Y-18214508D02*
X4079358Y-18224031D01*
X4079358Y-18224031D02*
X4088882Y-18243079D01*
X4088882Y-18243079D02*
X4098405Y-18281174D01*
X4098405Y-18281174D02*
X4098405Y-18328793D01*
X4098405Y-18328793D02*
X4088882Y-18366889D01*
X4088882Y-18366889D02*
X4079358Y-18385936D01*
X4079358Y-18385936D02*
X4069834Y-18395460D01*
X4069834Y-18395460D02*
X4050786Y-18404984D01*
X4050786Y-18404984D02*
X4031739Y-18404984D01*
X4031739Y-18404984D02*
X4012691Y-18395460D01*
X4012691Y-18395460D02*
X4003167Y-18385936D01*
X4003167Y-18385936D02*
X3993643Y-18366889D01*
X3993643Y-18366889D02*
X3984120Y-18328793D01*
X3984120Y-18328793D02*
X3984120Y-18281174D01*
X3984120Y-18281174D02*
X3993643Y-18243079D01*
X3993643Y-18243079D02*
X4003167Y-18224031D01*
X4003167Y-18224031D02*
X4012691Y-18214508D01*
X4012691Y-18214508D02*
X4031739Y-18204984D01*
X4184120Y-18404984D02*
X4184120Y-18271650D01*
X4184120Y-18290698D02*
X4193643Y-18281174D01*
X4193643Y-18281174D02*
X4212691Y-18271650D01*
X4212691Y-18271650D02*
X4241263Y-18271650D01*
X4241263Y-18271650D02*
X4260310Y-18281174D01*
X4260310Y-18281174D02*
X4269834Y-18300222D01*
X4269834Y-18300222D02*
X4269834Y-18404984D01*
X4269834Y-18300222D02*
X4279358Y-18281174D01*
X4279358Y-18281174D02*
X4298405Y-18271650D01*
X4298405Y-18271650D02*
X4326977Y-18271650D01*
X4326977Y-18271650D02*
X4346025Y-18281174D01*
X4346025Y-18281174D02*
X4355548Y-18300222D01*
X4355548Y-18300222D02*
X4355548Y-18404984D01*
X4450786Y-18404984D02*
X4450786Y-18271650D01*
X4450786Y-18290698D02*
X4460310Y-18281174D01*
X4460310Y-18281174D02*
X4479358Y-18271650D01*
X4479358Y-18271650D02*
X4507929Y-18271650D01*
X4507929Y-18271650D02*
X4526977Y-18281174D01*
X4526977Y-18281174D02*
X4536501Y-18300222D01*
X4536501Y-18300222D02*
X4536501Y-18404984D01*
X4536501Y-18300222D02*
X4546025Y-18281174D01*
X4546025Y-18281174D02*
X4565072Y-18271650D01*
X4565072Y-18271650D02*
X4593644Y-18271650D01*
X4593644Y-18271650D02*
X4612691Y-18281174D01*
X4612691Y-18281174D02*
X4622215Y-18300222D01*
X4622215Y-18300222D02*
X4622215Y-18404984D01*
X5012691Y-18195460D02*
X4841263Y-18452603D01*
X5269834Y-18204984D02*
X5288882Y-18204984D01*
X5288882Y-18204984D02*
X5307929Y-18214508D01*
X5307929Y-18214508D02*
X5317453Y-18224031D01*
X5317453Y-18224031D02*
X5326977Y-18243079D01*
X5326977Y-18243079D02*
X5336501Y-18281174D01*
X5336501Y-18281174D02*
X5336501Y-18328793D01*
X5336501Y-18328793D02*
X5326977Y-18366889D01*
X5326977Y-18366889D02*
X5317453Y-18385936D01*
X5317453Y-18385936D02*
X5307929Y-18395460D01*
X5307929Y-18395460D02*
X5288882Y-18404984D01*
X5288882Y-18404984D02*
X5269834Y-18404984D01*
X5269834Y-18404984D02*
X5250787Y-18395460D01*
X5250787Y-18395460D02*
X5241263Y-18385936D01*
X5241263Y-18385936D02*
X5231739Y-18366889D01*
X5231739Y-18366889D02*
X5222215Y-18328793D01*
X5222215Y-18328793D02*
X5222215Y-18281174D01*
X5222215Y-18281174D02*
X5231739Y-18243079D01*
X5231739Y-18243079D02*
X5241263Y-18224031D01*
X5241263Y-18224031D02*
X5250787Y-18214508D01*
X5250787Y-18214508D02*
X5269834Y-18204984D01*
X5422215Y-18385936D02*
X5431739Y-18395460D01*
X5431739Y-18395460D02*
X5422215Y-18404984D01*
X5422215Y-18404984D02*
X5412691Y-18395460D01*
X5412691Y-18395460D02*
X5422215Y-18385936D01*
X5422215Y-18385936D02*
X5422215Y-18404984D01*
X5555548Y-18204984D02*
X5574596Y-18204984D01*
X5574596Y-18204984D02*
X5593644Y-18214508D01*
X5593644Y-18214508D02*
X5603167Y-18224031D01*
X5603167Y-18224031D02*
X5612691Y-18243079D01*
X5612691Y-18243079D02*
X5622215Y-18281174D01*
X5622215Y-18281174D02*
X5622215Y-18328793D01*
X5622215Y-18328793D02*
X5612691Y-18366889D01*
X5612691Y-18366889D02*
X5603167Y-18385936D01*
X5603167Y-18385936D02*
X5593644Y-18395460D01*
X5593644Y-18395460D02*
X5574596Y-18404984D01*
X5574596Y-18404984D02*
X5555548Y-18404984D01*
X5555548Y-18404984D02*
X5536501Y-18395460D01*
X5536501Y-18395460D02*
X5526977Y-18385936D01*
X5526977Y-18385936D02*
X5517453Y-18366889D01*
X5517453Y-18366889D02*
X5507929Y-18328793D01*
X5507929Y-18328793D02*
X5507929Y-18281174D01*
X5507929Y-18281174D02*
X5517453Y-18243079D01*
X5517453Y-18243079D02*
X5526977Y-18224031D01*
X5526977Y-18224031D02*
X5536501Y-18214508D01*
X5536501Y-18214508D02*
X5555548Y-18204984D01*
X5688882Y-18204984D02*
X5812691Y-18204984D01*
X5812691Y-18204984D02*
X5746025Y-18281174D01*
X5746025Y-18281174D02*
X5774596Y-18281174D01*
X5774596Y-18281174D02*
X5793644Y-18290698D01*
X5793644Y-18290698D02*
X5803167Y-18300222D01*
X5803167Y-18300222D02*
X5812691Y-18319270D01*
X5812691Y-18319270D02*
X5812691Y-18366889D01*
X5812691Y-18366889D02*
X5803167Y-18385936D01*
X5803167Y-18385936D02*
X5793644Y-18395460D01*
X5793644Y-18395460D02*
X5774596Y-18404984D01*
X5774596Y-18404984D02*
X5717453Y-18404984D01*
X5717453Y-18404984D02*
X5698406Y-18395460D01*
X5698406Y-18395460D02*
X5688882Y-18385936D01*
X6003167Y-18404984D02*
X5888882Y-18404984D01*
X5946025Y-18404984D02*
X5946025Y-18204984D01*
X5946025Y-18204984D02*
X5926977Y-18233555D01*
X5926977Y-18233555D02*
X5907929Y-18252603D01*
X5907929Y-18252603D02*
X5888882Y-18262127D01*
X6184120Y-18204984D02*
X6088882Y-18204984D01*
X6088882Y-18204984D02*
X6079358Y-18300222D01*
X6079358Y-18300222D02*
X6088882Y-18290698D01*
X6088882Y-18290698D02*
X6107929Y-18281174D01*
X6107929Y-18281174D02*
X6155548Y-18281174D01*
X6155548Y-18281174D02*
X6174596Y-18290698D01*
X6174596Y-18290698D02*
X6184120Y-18300222D01*
X6184120Y-18300222D02*
X6193644Y-18319270D01*
X6193644Y-18319270D02*
X6193644Y-18366889D01*
X6193644Y-18366889D02*
X6184120Y-18385936D01*
X6184120Y-18385936D02*
X6174596Y-18395460D01*
X6174596Y-18395460D02*
X6155548Y-18404984D01*
X6155548Y-18404984D02*
X6107929Y-18404984D01*
X6107929Y-18404984D02*
X6088882Y-18395460D01*
X6088882Y-18395460D02*
X6079358Y-18385936D01*
X6269834Y-18204984D02*
X6269834Y-18243079D01*
X6346025Y-18204984D02*
X6346025Y-18243079D01*
X6641263Y-18481174D02*
X6631739Y-18471650D01*
X6631739Y-18471650D02*
X6612691Y-18443079D01*
X6612691Y-18443079D02*
X6603168Y-18424031D01*
X6603168Y-18424031D02*
X6593644Y-18395460D01*
X6593644Y-18395460D02*
X6584120Y-18347841D01*
X6584120Y-18347841D02*
X6584120Y-18309746D01*
X6584120Y-18309746D02*
X6593644Y-18262127D01*
X6593644Y-18262127D02*
X6603168Y-18233555D01*
X6603168Y-18233555D02*
X6612691Y-18214508D01*
X6612691Y-18214508D02*
X6631739Y-18185936D01*
X6631739Y-18185936D02*
X6641263Y-18176412D01*
X6726977Y-18404984D02*
X6765072Y-18404984D01*
X6765072Y-18404984D02*
X6784120Y-18395460D01*
X6784120Y-18395460D02*
X6793644Y-18385936D01*
X6793644Y-18385936D02*
X6812691Y-18357365D01*
X6812691Y-18357365D02*
X6822215Y-18319270D01*
X6822215Y-18319270D02*
X6822215Y-18243079D01*
X6822215Y-18243079D02*
X6812691Y-18224031D01*
X6812691Y-18224031D02*
X6803168Y-18214508D01*
X6803168Y-18214508D02*
X6784120Y-18204984D01*
X6784120Y-18204984D02*
X6746025Y-18204984D01*
X6746025Y-18204984D02*
X6726977Y-18214508D01*
X6726977Y-18214508D02*
X6717453Y-18224031D01*
X6717453Y-18224031D02*
X6707929Y-18243079D01*
X6707929Y-18243079D02*
X6707929Y-18290698D01*
X6707929Y-18290698D02*
X6717453Y-18309746D01*
X6717453Y-18309746D02*
X6726977Y-18319270D01*
X6726977Y-18319270D02*
X6746025Y-18328793D01*
X6746025Y-18328793D02*
X6784120Y-18328793D01*
X6784120Y-18328793D02*
X6803168Y-18319270D01*
X6803168Y-18319270D02*
X6812691Y-18309746D01*
X6812691Y-18309746D02*
X6822215Y-18290698D01*
X6888882Y-18204984D02*
X7022215Y-18204984D01*
X7022215Y-18204984D02*
X6936501Y-18404984D01*
X7250787Y-18404984D02*
X7250787Y-18204984D01*
X7336501Y-18404984D02*
X7336501Y-18300222D01*
X7336501Y-18300222D02*
X7326977Y-18281174D01*
X7326977Y-18281174D02*
X7307930Y-18271650D01*
X7307930Y-18271650D02*
X7279358Y-18271650D01*
X7279358Y-18271650D02*
X7260310Y-18281174D01*
X7260310Y-18281174D02*
X7250787Y-18290698D01*
X7460310Y-18404984D02*
X7441263Y-18395460D01*
X7441263Y-18395460D02*
X7431739Y-18385936D01*
X7431739Y-18385936D02*
X7422215Y-18366889D01*
X7422215Y-18366889D02*
X7422215Y-18309746D01*
X7422215Y-18309746D02*
X7431739Y-18290698D01*
X7431739Y-18290698D02*
X7441263Y-18281174D01*
X7441263Y-18281174D02*
X7460310Y-18271650D01*
X7460310Y-18271650D02*
X7488882Y-18271650D01*
X7488882Y-18271650D02*
X7507930Y-18281174D01*
X7507930Y-18281174D02*
X7517453Y-18290698D01*
X7517453Y-18290698D02*
X7526977Y-18309746D01*
X7526977Y-18309746D02*
X7526977Y-18366889D01*
X7526977Y-18366889D02*
X7517453Y-18385936D01*
X7517453Y-18385936D02*
X7507930Y-18395460D01*
X7507930Y-18395460D02*
X7488882Y-18404984D01*
X7488882Y-18404984D02*
X7460310Y-18404984D01*
X7641263Y-18404984D02*
X7622215Y-18395460D01*
X7622215Y-18395460D02*
X7612691Y-18376412D01*
X7612691Y-18376412D02*
X7612691Y-18204984D01*
X7793644Y-18395460D02*
X7774596Y-18404984D01*
X7774596Y-18404984D02*
X7736501Y-18404984D01*
X7736501Y-18404984D02*
X7717453Y-18395460D01*
X7717453Y-18395460D02*
X7707930Y-18376412D01*
X7707930Y-18376412D02*
X7707930Y-18300222D01*
X7707930Y-18300222D02*
X7717453Y-18281174D01*
X7717453Y-18281174D02*
X7736501Y-18271650D01*
X7736501Y-18271650D02*
X7774596Y-18271650D01*
X7774596Y-18271650D02*
X7793644Y-18281174D01*
X7793644Y-18281174D02*
X7803168Y-18300222D01*
X7803168Y-18300222D02*
X7803168Y-18319270D01*
X7803168Y-18319270D02*
X7707930Y-18338317D01*
X7879358Y-18395460D02*
X7898406Y-18404984D01*
X7898406Y-18404984D02*
X7936501Y-18404984D01*
X7936501Y-18404984D02*
X7955549Y-18395460D01*
X7955549Y-18395460D02*
X7965072Y-18376412D01*
X7965072Y-18376412D02*
X7965072Y-18366889D01*
X7965072Y-18366889D02*
X7955549Y-18347841D01*
X7955549Y-18347841D02*
X7936501Y-18338317D01*
X7936501Y-18338317D02*
X7907930Y-18338317D01*
X7907930Y-18338317D02*
X7888882Y-18328793D01*
X7888882Y-18328793D02*
X7879358Y-18309746D01*
X7879358Y-18309746D02*
X7879358Y-18300222D01*
X7879358Y-18300222D02*
X7888882Y-18281174D01*
X7888882Y-18281174D02*
X7907930Y-18271650D01*
X7907930Y-18271650D02*
X7936501Y-18271650D01*
X7936501Y-18271650D02*
X7955549Y-18281174D01*
X8031739Y-18481174D02*
X8041263Y-18471650D01*
X8041263Y-18471650D02*
X8060311Y-18443079D01*
X8060311Y-18443079D02*
X8069834Y-18424031D01*
X8069834Y-18424031D02*
X8079358Y-18395460D01*
X8079358Y-18395460D02*
X8088882Y-18347841D01*
X8088882Y-18347841D02*
X8088882Y-18309746D01*
X8088882Y-18309746D02*
X8079358Y-18262127D01*
X8079358Y-18262127D02*
X8069834Y-18233555D01*
X8069834Y-18233555D02*
X8060311Y-18214508D01*
X8060311Y-18214508D02*
X8041263Y-18185936D01*
X8041263Y-18185936D02*
X8031739Y-18176412D01*
D12*
X3021200Y-18532500D02*
X3021200Y-18622500D01*
X2976200Y-18577500D02*
X3066200Y-18577500D01*
D11*
X3365072Y-18468984D02*
X3384120Y-18468984D01*
X3384120Y-18468984D02*
X3403167Y-18478508D01*
X3403167Y-18478508D02*
X3412691Y-18488031D01*
X3412691Y-18488031D02*
X3422215Y-18507079D01*
X3422215Y-18507079D02*
X3431739Y-18545174D01*
X3431739Y-18545174D02*
X3431739Y-18592793D01*
X3431739Y-18592793D02*
X3422215Y-18630889D01*
X3422215Y-18630889D02*
X3412691Y-18649936D01*
X3412691Y-18649936D02*
X3403167Y-18659460D01*
X3403167Y-18659460D02*
X3384120Y-18668984D01*
X3384120Y-18668984D02*
X3365072Y-18668984D01*
X3365072Y-18668984D02*
X3346024Y-18659460D01*
X3346024Y-18659460D02*
X3336501Y-18649936D01*
X3336501Y-18649936D02*
X3326977Y-18630889D01*
X3326977Y-18630889D02*
X3317453Y-18592793D01*
X3317453Y-18592793D02*
X3317453Y-18545174D01*
X3317453Y-18545174D02*
X3326977Y-18507079D01*
X3326977Y-18507079D02*
X3336501Y-18488031D01*
X3336501Y-18488031D02*
X3346024Y-18478508D01*
X3346024Y-18478508D02*
X3365072Y-18468984D01*
X3517453Y-18649936D02*
X3526977Y-18659460D01*
X3526977Y-18659460D02*
X3517453Y-18668984D01*
X3517453Y-18668984D02*
X3507929Y-18659460D01*
X3507929Y-18659460D02*
X3517453Y-18649936D01*
X3517453Y-18649936D02*
X3517453Y-18668984D01*
X3622215Y-18668984D02*
X3660310Y-18668984D01*
X3660310Y-18668984D02*
X3679358Y-18659460D01*
X3679358Y-18659460D02*
X3688882Y-18649936D01*
X3688882Y-18649936D02*
X3707929Y-18621365D01*
X3707929Y-18621365D02*
X3717453Y-18583270D01*
X3717453Y-18583270D02*
X3717453Y-18507079D01*
X3717453Y-18507079D02*
X3707929Y-18488031D01*
X3707929Y-18488031D02*
X3698405Y-18478508D01*
X3698405Y-18478508D02*
X3679358Y-18468984D01*
X3679358Y-18468984D02*
X3641262Y-18468984D01*
X3641262Y-18468984D02*
X3622215Y-18478508D01*
X3622215Y-18478508D02*
X3612691Y-18488031D01*
X3612691Y-18488031D02*
X3603167Y-18507079D01*
X3603167Y-18507079D02*
X3603167Y-18554698D01*
X3603167Y-18554698D02*
X3612691Y-18573746D01*
X3612691Y-18573746D02*
X3622215Y-18583270D01*
X3622215Y-18583270D02*
X3641262Y-18592793D01*
X3641262Y-18592793D02*
X3679358Y-18592793D01*
X3679358Y-18592793D02*
X3698405Y-18583270D01*
X3698405Y-18583270D02*
X3707929Y-18573746D01*
X3707929Y-18573746D02*
X3717453Y-18554698D01*
X3841262Y-18468984D02*
X3860310Y-18468984D01*
X3860310Y-18468984D02*
X3879358Y-18478508D01*
X3879358Y-18478508D02*
X3888882Y-18488031D01*
X3888882Y-18488031D02*
X3898405Y-18507079D01*
X3898405Y-18507079D02*
X3907929Y-18545174D01*
X3907929Y-18545174D02*
X3907929Y-18592793D01*
X3907929Y-18592793D02*
X3898405Y-18630889D01*
X3898405Y-18630889D02*
X3888882Y-18649936D01*
X3888882Y-18649936D02*
X3879358Y-18659460D01*
X3879358Y-18659460D02*
X3860310Y-18668984D01*
X3860310Y-18668984D02*
X3841262Y-18668984D01*
X3841262Y-18668984D02*
X3822215Y-18659460D01*
X3822215Y-18659460D02*
X3812691Y-18649936D01*
X3812691Y-18649936D02*
X3803167Y-18630889D01*
X3803167Y-18630889D02*
X3793643Y-18592793D01*
X3793643Y-18592793D02*
X3793643Y-18545174D01*
X3793643Y-18545174D02*
X3803167Y-18507079D01*
X3803167Y-18507079D02*
X3812691Y-18488031D01*
X3812691Y-18488031D02*
X3822215Y-18478508D01*
X3822215Y-18478508D02*
X3841262Y-18468984D01*
X4031739Y-18468984D02*
X4050786Y-18468984D01*
X4050786Y-18468984D02*
X4069834Y-18478508D01*
X4069834Y-18478508D02*
X4079358Y-18488031D01*
X4079358Y-18488031D02*
X4088882Y-18507079D01*
X4088882Y-18507079D02*
X4098405Y-18545174D01*
X4098405Y-18545174D02*
X4098405Y-18592793D01*
X4098405Y-18592793D02*
X4088882Y-18630889D01*
X4088882Y-18630889D02*
X4079358Y-18649936D01*
X4079358Y-18649936D02*
X4069834Y-18659460D01*
X4069834Y-18659460D02*
X4050786Y-18668984D01*
X4050786Y-18668984D02*
X4031739Y-18668984D01*
X4031739Y-18668984D02*
X4012691Y-18659460D01*
X4012691Y-18659460D02*
X4003167Y-18649936D01*
X4003167Y-18649936D02*
X3993643Y-18630889D01*
X3993643Y-18630889D02*
X3984120Y-18592793D01*
X3984120Y-18592793D02*
X3984120Y-18545174D01*
X3984120Y-18545174D02*
X3993643Y-18507079D01*
X3993643Y-18507079D02*
X4003167Y-18488031D01*
X4003167Y-18488031D02*
X4012691Y-18478508D01*
X4012691Y-18478508D02*
X4031739Y-18468984D01*
X4184120Y-18668984D02*
X4184120Y-18535650D01*
X4184120Y-18554698D02*
X4193643Y-18545174D01*
X4193643Y-18545174D02*
X4212691Y-18535650D01*
X4212691Y-18535650D02*
X4241263Y-18535650D01*
X4241263Y-18535650D02*
X4260310Y-18545174D01*
X4260310Y-18545174D02*
X4269834Y-18564222D01*
X4269834Y-18564222D02*
X4269834Y-18668984D01*
X4269834Y-18564222D02*
X4279358Y-18545174D01*
X4279358Y-18545174D02*
X4298405Y-18535650D01*
X4298405Y-18535650D02*
X4326977Y-18535650D01*
X4326977Y-18535650D02*
X4346025Y-18545174D01*
X4346025Y-18545174D02*
X4355548Y-18564222D01*
X4355548Y-18564222D02*
X4355548Y-18668984D01*
X4450786Y-18668984D02*
X4450786Y-18535650D01*
X4450786Y-18554698D02*
X4460310Y-18545174D01*
X4460310Y-18545174D02*
X4479358Y-18535650D01*
X4479358Y-18535650D02*
X4507929Y-18535650D01*
X4507929Y-18535650D02*
X4526977Y-18545174D01*
X4526977Y-18545174D02*
X4536501Y-18564222D01*
X4536501Y-18564222D02*
X4536501Y-18668984D01*
X4536501Y-18564222D02*
X4546025Y-18545174D01*
X4546025Y-18545174D02*
X4565072Y-18535650D01*
X4565072Y-18535650D02*
X4593644Y-18535650D01*
X4593644Y-18535650D02*
X4612691Y-18545174D01*
X4612691Y-18545174D02*
X4622215Y-18564222D01*
X4622215Y-18564222D02*
X4622215Y-18668984D01*
X5012691Y-18459460D02*
X4841263Y-18716603D01*
X5269834Y-18468984D02*
X5288882Y-18468984D01*
X5288882Y-18468984D02*
X5307929Y-18478508D01*
X5307929Y-18478508D02*
X5317453Y-18488031D01*
X5317453Y-18488031D02*
X5326977Y-18507079D01*
X5326977Y-18507079D02*
X5336501Y-18545174D01*
X5336501Y-18545174D02*
X5336501Y-18592793D01*
X5336501Y-18592793D02*
X5326977Y-18630889D01*
X5326977Y-18630889D02*
X5317453Y-18649936D01*
X5317453Y-18649936D02*
X5307929Y-18659460D01*
X5307929Y-18659460D02*
X5288882Y-18668984D01*
X5288882Y-18668984D02*
X5269834Y-18668984D01*
X5269834Y-18668984D02*
X5250787Y-18659460D01*
X5250787Y-18659460D02*
X5241263Y-18649936D01*
X5241263Y-18649936D02*
X5231739Y-18630889D01*
X5231739Y-18630889D02*
X5222215Y-18592793D01*
X5222215Y-18592793D02*
X5222215Y-18545174D01*
X5222215Y-18545174D02*
X5231739Y-18507079D01*
X5231739Y-18507079D02*
X5241263Y-18488031D01*
X5241263Y-18488031D02*
X5250787Y-18478508D01*
X5250787Y-18478508D02*
X5269834Y-18468984D01*
X5422215Y-18649936D02*
X5431739Y-18659460D01*
X5431739Y-18659460D02*
X5422215Y-18668984D01*
X5422215Y-18668984D02*
X5412691Y-18659460D01*
X5412691Y-18659460D02*
X5422215Y-18649936D01*
X5422215Y-18649936D02*
X5422215Y-18668984D01*
X5555548Y-18468984D02*
X5574596Y-18468984D01*
X5574596Y-18468984D02*
X5593644Y-18478508D01*
X5593644Y-18478508D02*
X5603167Y-18488031D01*
X5603167Y-18488031D02*
X5612691Y-18507079D01*
X5612691Y-18507079D02*
X5622215Y-18545174D01*
X5622215Y-18545174D02*
X5622215Y-18592793D01*
X5622215Y-18592793D02*
X5612691Y-18630889D01*
X5612691Y-18630889D02*
X5603167Y-18649936D01*
X5603167Y-18649936D02*
X5593644Y-18659460D01*
X5593644Y-18659460D02*
X5574596Y-18668984D01*
X5574596Y-18668984D02*
X5555548Y-18668984D01*
X5555548Y-18668984D02*
X5536501Y-18659460D01*
X5536501Y-18659460D02*
X5526977Y-18649936D01*
X5526977Y-18649936D02*
X5517453Y-18630889D01*
X5517453Y-18630889D02*
X5507929Y-18592793D01*
X5507929Y-18592793D02*
X5507929Y-18545174D01*
X5507929Y-18545174D02*
X5517453Y-18507079D01*
X5517453Y-18507079D02*
X5526977Y-18488031D01*
X5526977Y-18488031D02*
X5536501Y-18478508D01*
X5536501Y-18478508D02*
X5555548Y-18468984D01*
X5688882Y-18468984D02*
X5812691Y-18468984D01*
X5812691Y-18468984D02*
X5746025Y-18545174D01*
X5746025Y-18545174D02*
X5774596Y-18545174D01*
X5774596Y-18545174D02*
X5793644Y-18554698D01*
X5793644Y-18554698D02*
X5803167Y-18564222D01*
X5803167Y-18564222D02*
X5812691Y-18583270D01*
X5812691Y-18583270D02*
X5812691Y-18630889D01*
X5812691Y-18630889D02*
X5803167Y-18649936D01*
X5803167Y-18649936D02*
X5793644Y-18659460D01*
X5793644Y-18659460D02*
X5774596Y-18668984D01*
X5774596Y-18668984D02*
X5717453Y-18668984D01*
X5717453Y-18668984D02*
X5698406Y-18659460D01*
X5698406Y-18659460D02*
X5688882Y-18649936D01*
X5993644Y-18468984D02*
X5898406Y-18468984D01*
X5898406Y-18468984D02*
X5888882Y-18564222D01*
X5888882Y-18564222D02*
X5898406Y-18554698D01*
X5898406Y-18554698D02*
X5917453Y-18545174D01*
X5917453Y-18545174D02*
X5965072Y-18545174D01*
X5965072Y-18545174D02*
X5984120Y-18554698D01*
X5984120Y-18554698D02*
X5993644Y-18564222D01*
X5993644Y-18564222D02*
X6003167Y-18583270D01*
X6003167Y-18583270D02*
X6003167Y-18630889D01*
X6003167Y-18630889D02*
X5993644Y-18649936D01*
X5993644Y-18649936D02*
X5984120Y-18659460D01*
X5984120Y-18659460D02*
X5965072Y-18668984D01*
X5965072Y-18668984D02*
X5917453Y-18668984D01*
X5917453Y-18668984D02*
X5898406Y-18659460D01*
X5898406Y-18659460D02*
X5888882Y-18649936D01*
X6174596Y-18535650D02*
X6174596Y-18668984D01*
X6126977Y-18459460D02*
X6079358Y-18602317D01*
X6079358Y-18602317D02*
X6203167Y-18602317D01*
X6269834Y-18468984D02*
X6269834Y-18507079D01*
X6346025Y-18468984D02*
X6346025Y-18507079D01*
X6641263Y-18745174D02*
X6631739Y-18735650D01*
X6631739Y-18735650D02*
X6612691Y-18707079D01*
X6612691Y-18707079D02*
X6603168Y-18688031D01*
X6603168Y-18688031D02*
X6593644Y-18659460D01*
X6593644Y-18659460D02*
X6584120Y-18611841D01*
X6584120Y-18611841D02*
X6584120Y-18573746D01*
X6584120Y-18573746D02*
X6593644Y-18526127D01*
X6593644Y-18526127D02*
X6603168Y-18497555D01*
X6603168Y-18497555D02*
X6612691Y-18478508D01*
X6612691Y-18478508D02*
X6631739Y-18449936D01*
X6631739Y-18449936D02*
X6641263Y-18440412D01*
X6803168Y-18535650D02*
X6803168Y-18668984D01*
X6755548Y-18459460D02*
X6707929Y-18602317D01*
X6707929Y-18602317D02*
X6831739Y-18602317D01*
X7060310Y-18668984D02*
X7060310Y-18468984D01*
X7146025Y-18668984D02*
X7146025Y-18564222D01*
X7146025Y-18564222D02*
X7136501Y-18545174D01*
X7136501Y-18545174D02*
X7117453Y-18535650D01*
X7117453Y-18535650D02*
X7088882Y-18535650D01*
X7088882Y-18535650D02*
X7069834Y-18545174D01*
X7069834Y-18545174D02*
X7060310Y-18554698D01*
X7269834Y-18668984D02*
X7250787Y-18659460D01*
X7250787Y-18659460D02*
X7241263Y-18649936D01*
X7241263Y-18649936D02*
X7231739Y-18630889D01*
X7231739Y-18630889D02*
X7231739Y-18573746D01*
X7231739Y-18573746D02*
X7241263Y-18554698D01*
X7241263Y-18554698D02*
X7250787Y-18545174D01*
X7250787Y-18545174D02*
X7269834Y-18535650D01*
X7269834Y-18535650D02*
X7298406Y-18535650D01*
X7298406Y-18535650D02*
X7317453Y-18545174D01*
X7317453Y-18545174D02*
X7326977Y-18554698D01*
X7326977Y-18554698D02*
X7336501Y-18573746D01*
X7336501Y-18573746D02*
X7336501Y-18630889D01*
X7336501Y-18630889D02*
X7326977Y-18649936D01*
X7326977Y-18649936D02*
X7317453Y-18659460D01*
X7317453Y-18659460D02*
X7298406Y-18668984D01*
X7298406Y-18668984D02*
X7269834Y-18668984D01*
X7450787Y-18668984D02*
X7431739Y-18659460D01*
X7431739Y-18659460D02*
X7422215Y-18640412D01*
X7422215Y-18640412D02*
X7422215Y-18468984D01*
X7603168Y-18659460D02*
X7584120Y-18668984D01*
X7584120Y-18668984D02*
X7546025Y-18668984D01*
X7546025Y-18668984D02*
X7526977Y-18659460D01*
X7526977Y-18659460D02*
X7517453Y-18640412D01*
X7517453Y-18640412D02*
X7517453Y-18564222D01*
X7517453Y-18564222D02*
X7526977Y-18545174D01*
X7526977Y-18545174D02*
X7546025Y-18535650D01*
X7546025Y-18535650D02*
X7584120Y-18535650D01*
X7584120Y-18535650D02*
X7603168Y-18545174D01*
X7603168Y-18545174D02*
X7612691Y-18564222D01*
X7612691Y-18564222D02*
X7612691Y-18583270D01*
X7612691Y-18583270D02*
X7517453Y-18602317D01*
X7688882Y-18659460D02*
X7707930Y-18668984D01*
X7707930Y-18668984D02*
X7746025Y-18668984D01*
X7746025Y-18668984D02*
X7765072Y-18659460D01*
X7765072Y-18659460D02*
X7774596Y-18640412D01*
X7774596Y-18640412D02*
X7774596Y-18630889D01*
X7774596Y-18630889D02*
X7765072Y-18611841D01*
X7765072Y-18611841D02*
X7746025Y-18602317D01*
X7746025Y-18602317D02*
X7717453Y-18602317D01*
X7717453Y-18602317D02*
X7698406Y-18592793D01*
X7698406Y-18592793D02*
X7688882Y-18573746D01*
X7688882Y-18573746D02*
X7688882Y-18564222D01*
X7688882Y-18564222D02*
X7698406Y-18545174D01*
X7698406Y-18545174D02*
X7717453Y-18535650D01*
X7717453Y-18535650D02*
X7746025Y-18535650D01*
X7746025Y-18535650D02*
X7765072Y-18545174D01*
X7841263Y-18745174D02*
X7850787Y-18735650D01*
X7850787Y-18735650D02*
X7869834Y-18707079D01*
X7869834Y-18707079D02*
X7879358Y-18688031D01*
X7879358Y-18688031D02*
X7888882Y-18659460D01*
X7888882Y-18659460D02*
X7898406Y-18611841D01*
X7898406Y-18611841D02*
X7898406Y-18573746D01*
X7898406Y-18573746D02*
X7888882Y-18526127D01*
X7888882Y-18526127D02*
X7879358Y-18497555D01*
X7879358Y-18497555D02*
X7869834Y-18478508D01*
X7869834Y-18478508D02*
X7850787Y-18449936D01*
X7850787Y-18449936D02*
X7841263Y-18440412D01*
D12*
X3051556Y-18876856D02*
X3051556Y-18806144D01*
X2980844Y-18806144D01*
X2980844Y-18876856D01*
X3051556Y-18876856D01*
D11*
X3431739Y-18932984D02*
X3317453Y-18932984D01*
X3374596Y-18932984D02*
X3374596Y-18732984D01*
X3374596Y-18732984D02*
X3355548Y-18761555D01*
X3355548Y-18761555D02*
X3336501Y-18780603D01*
X3336501Y-18780603D02*
X3317453Y-18790127D01*
X3517453Y-18913936D02*
X3526977Y-18923460D01*
X3526977Y-18923460D02*
X3517453Y-18932984D01*
X3517453Y-18932984D02*
X3507929Y-18923460D01*
X3507929Y-18923460D02*
X3517453Y-18913936D01*
X3517453Y-18913936D02*
X3517453Y-18932984D01*
X3650786Y-18732984D02*
X3669834Y-18732984D01*
X3669834Y-18732984D02*
X3688882Y-18742508D01*
X3688882Y-18742508D02*
X3698405Y-18752031D01*
X3698405Y-18752031D02*
X3707929Y-18771079D01*
X3707929Y-18771079D02*
X3717453Y-18809174D01*
X3717453Y-18809174D02*
X3717453Y-18856793D01*
X3717453Y-18856793D02*
X3707929Y-18894889D01*
X3707929Y-18894889D02*
X3698405Y-18913936D01*
X3698405Y-18913936D02*
X3688882Y-18923460D01*
X3688882Y-18923460D02*
X3669834Y-18932984D01*
X3669834Y-18932984D02*
X3650786Y-18932984D01*
X3650786Y-18932984D02*
X3631739Y-18923460D01*
X3631739Y-18923460D02*
X3622215Y-18913936D01*
X3622215Y-18913936D02*
X3612691Y-18894889D01*
X3612691Y-18894889D02*
X3603167Y-18856793D01*
X3603167Y-18856793D02*
X3603167Y-18809174D01*
X3603167Y-18809174D02*
X3612691Y-18771079D01*
X3612691Y-18771079D02*
X3622215Y-18752031D01*
X3622215Y-18752031D02*
X3631739Y-18742508D01*
X3631739Y-18742508D02*
X3650786Y-18732984D01*
X3841262Y-18732984D02*
X3860310Y-18732984D01*
X3860310Y-18732984D02*
X3879358Y-18742508D01*
X3879358Y-18742508D02*
X3888882Y-18752031D01*
X3888882Y-18752031D02*
X3898405Y-18771079D01*
X3898405Y-18771079D02*
X3907929Y-18809174D01*
X3907929Y-18809174D02*
X3907929Y-18856793D01*
X3907929Y-18856793D02*
X3898405Y-18894889D01*
X3898405Y-18894889D02*
X3888882Y-18913936D01*
X3888882Y-18913936D02*
X3879358Y-18923460D01*
X3879358Y-18923460D02*
X3860310Y-18932984D01*
X3860310Y-18932984D02*
X3841262Y-18932984D01*
X3841262Y-18932984D02*
X3822215Y-18923460D01*
X3822215Y-18923460D02*
X3812691Y-18913936D01*
X3812691Y-18913936D02*
X3803167Y-18894889D01*
X3803167Y-18894889D02*
X3793643Y-18856793D01*
X3793643Y-18856793D02*
X3793643Y-18809174D01*
X3793643Y-18809174D02*
X3803167Y-18771079D01*
X3803167Y-18771079D02*
X3812691Y-18752031D01*
X3812691Y-18752031D02*
X3822215Y-18742508D01*
X3822215Y-18742508D02*
X3841262Y-18732984D01*
X4031739Y-18732984D02*
X4050786Y-18732984D01*
X4050786Y-18732984D02*
X4069834Y-18742508D01*
X4069834Y-18742508D02*
X4079358Y-18752031D01*
X4079358Y-18752031D02*
X4088882Y-18771079D01*
X4088882Y-18771079D02*
X4098405Y-18809174D01*
X4098405Y-18809174D02*
X4098405Y-18856793D01*
X4098405Y-18856793D02*
X4088882Y-18894889D01*
X4088882Y-18894889D02*
X4079358Y-18913936D01*
X4079358Y-18913936D02*
X4069834Y-18923460D01*
X4069834Y-18923460D02*
X4050786Y-18932984D01*
X4050786Y-18932984D02*
X4031739Y-18932984D01*
X4031739Y-18932984D02*
X4012691Y-18923460D01*
X4012691Y-18923460D02*
X4003167Y-18913936D01*
X4003167Y-18913936D02*
X3993643Y-18894889D01*
X3993643Y-18894889D02*
X3984120Y-18856793D01*
X3984120Y-18856793D02*
X3984120Y-18809174D01*
X3984120Y-18809174D02*
X3993643Y-18771079D01*
X3993643Y-18771079D02*
X4003167Y-18752031D01*
X4003167Y-18752031D02*
X4012691Y-18742508D01*
X4012691Y-18742508D02*
X4031739Y-18732984D01*
X4184120Y-18932984D02*
X4184120Y-18799650D01*
X4184120Y-18818698D02*
X4193643Y-18809174D01*
X4193643Y-18809174D02*
X4212691Y-18799650D01*
X4212691Y-18799650D02*
X4241263Y-18799650D01*
X4241263Y-18799650D02*
X4260310Y-18809174D01*
X4260310Y-18809174D02*
X4269834Y-18828222D01*
X4269834Y-18828222D02*
X4269834Y-18932984D01*
X4269834Y-18828222D02*
X4279358Y-18809174D01*
X4279358Y-18809174D02*
X4298405Y-18799650D01*
X4298405Y-18799650D02*
X4326977Y-18799650D01*
X4326977Y-18799650D02*
X4346025Y-18809174D01*
X4346025Y-18809174D02*
X4355548Y-18828222D01*
X4355548Y-18828222D02*
X4355548Y-18932984D01*
X4450786Y-18932984D02*
X4450786Y-18799650D01*
X4450786Y-18818698D02*
X4460310Y-18809174D01*
X4460310Y-18809174D02*
X4479358Y-18799650D01*
X4479358Y-18799650D02*
X4507929Y-18799650D01*
X4507929Y-18799650D02*
X4526977Y-18809174D01*
X4526977Y-18809174D02*
X4536501Y-18828222D01*
X4536501Y-18828222D02*
X4536501Y-18932984D01*
X4536501Y-18828222D02*
X4546025Y-18809174D01*
X4546025Y-18809174D02*
X4565072Y-18799650D01*
X4565072Y-18799650D02*
X4593644Y-18799650D01*
X4593644Y-18799650D02*
X4612691Y-18809174D01*
X4612691Y-18809174D02*
X4622215Y-18828222D01*
X4622215Y-18828222D02*
X4622215Y-18932984D01*
X5012691Y-18723460D02*
X4841263Y-18980603D01*
X5269834Y-18732984D02*
X5288882Y-18732984D01*
X5288882Y-18732984D02*
X5307929Y-18742508D01*
X5307929Y-18742508D02*
X5317453Y-18752031D01*
X5317453Y-18752031D02*
X5326977Y-18771079D01*
X5326977Y-18771079D02*
X5336501Y-18809174D01*
X5336501Y-18809174D02*
X5336501Y-18856793D01*
X5336501Y-18856793D02*
X5326977Y-18894889D01*
X5326977Y-18894889D02*
X5317453Y-18913936D01*
X5317453Y-18913936D02*
X5307929Y-18923460D01*
X5307929Y-18923460D02*
X5288882Y-18932984D01*
X5288882Y-18932984D02*
X5269834Y-18932984D01*
X5269834Y-18932984D02*
X5250787Y-18923460D01*
X5250787Y-18923460D02*
X5241263Y-18913936D01*
X5241263Y-18913936D02*
X5231739Y-18894889D01*
X5231739Y-18894889D02*
X5222215Y-18856793D01*
X5222215Y-18856793D02*
X5222215Y-18809174D01*
X5222215Y-18809174D02*
X5231739Y-18771079D01*
X5231739Y-18771079D02*
X5241263Y-18752031D01*
X5241263Y-18752031D02*
X5250787Y-18742508D01*
X5250787Y-18742508D02*
X5269834Y-18732984D01*
X5422215Y-18913936D02*
X5431739Y-18923460D01*
X5431739Y-18923460D02*
X5422215Y-18932984D01*
X5422215Y-18932984D02*
X5412691Y-18923460D01*
X5412691Y-18923460D02*
X5422215Y-18913936D01*
X5422215Y-18913936D02*
X5422215Y-18932984D01*
X5555548Y-18732984D02*
X5574596Y-18732984D01*
X5574596Y-18732984D02*
X5593644Y-18742508D01*
X5593644Y-18742508D02*
X5603167Y-18752031D01*
X5603167Y-18752031D02*
X5612691Y-18771079D01*
X5612691Y-18771079D02*
X5622215Y-18809174D01*
X5622215Y-18809174D02*
X5622215Y-18856793D01*
X5622215Y-18856793D02*
X5612691Y-18894889D01*
X5612691Y-18894889D02*
X5603167Y-18913936D01*
X5603167Y-18913936D02*
X5593644Y-18923460D01*
X5593644Y-18923460D02*
X5574596Y-18932984D01*
X5574596Y-18932984D02*
X5555548Y-18932984D01*
X5555548Y-18932984D02*
X5536501Y-18923460D01*
X5536501Y-18923460D02*
X5526977Y-18913936D01*
X5526977Y-18913936D02*
X5517453Y-18894889D01*
X5517453Y-18894889D02*
X5507929Y-18856793D01*
X5507929Y-18856793D02*
X5507929Y-18809174D01*
X5507929Y-18809174D02*
X5517453Y-18771079D01*
X5517453Y-18771079D02*
X5526977Y-18752031D01*
X5526977Y-18752031D02*
X5536501Y-18742508D01*
X5536501Y-18742508D02*
X5555548Y-18732984D01*
X5688882Y-18732984D02*
X5812691Y-18732984D01*
X5812691Y-18732984D02*
X5746025Y-18809174D01*
X5746025Y-18809174D02*
X5774596Y-18809174D01*
X5774596Y-18809174D02*
X5793644Y-18818698D01*
X5793644Y-18818698D02*
X5803167Y-18828222D01*
X5803167Y-18828222D02*
X5812691Y-18847270D01*
X5812691Y-18847270D02*
X5812691Y-18894889D01*
X5812691Y-18894889D02*
X5803167Y-18913936D01*
X5803167Y-18913936D02*
X5793644Y-18923460D01*
X5793644Y-18923460D02*
X5774596Y-18932984D01*
X5774596Y-18932984D02*
X5717453Y-18932984D01*
X5717453Y-18932984D02*
X5698406Y-18923460D01*
X5698406Y-18923460D02*
X5688882Y-18913936D01*
X5907929Y-18932984D02*
X5946025Y-18932984D01*
X5946025Y-18932984D02*
X5965072Y-18923460D01*
X5965072Y-18923460D02*
X5974596Y-18913936D01*
X5974596Y-18913936D02*
X5993644Y-18885365D01*
X5993644Y-18885365D02*
X6003167Y-18847270D01*
X6003167Y-18847270D02*
X6003167Y-18771079D01*
X6003167Y-18771079D02*
X5993644Y-18752031D01*
X5993644Y-18752031D02*
X5984120Y-18742508D01*
X5984120Y-18742508D02*
X5965072Y-18732984D01*
X5965072Y-18732984D02*
X5926977Y-18732984D01*
X5926977Y-18732984D02*
X5907929Y-18742508D01*
X5907929Y-18742508D02*
X5898406Y-18752031D01*
X5898406Y-18752031D02*
X5888882Y-18771079D01*
X5888882Y-18771079D02*
X5888882Y-18818698D01*
X5888882Y-18818698D02*
X5898406Y-18837746D01*
X5898406Y-18837746D02*
X5907929Y-18847270D01*
X5907929Y-18847270D02*
X5926977Y-18856793D01*
X5926977Y-18856793D02*
X5965072Y-18856793D01*
X5965072Y-18856793D02*
X5984120Y-18847270D01*
X5984120Y-18847270D02*
X5993644Y-18837746D01*
X5993644Y-18837746D02*
X6003167Y-18818698D01*
X6174596Y-18799650D02*
X6174596Y-18932984D01*
X6126977Y-18723460D02*
X6079358Y-18866317D01*
X6079358Y-18866317D02*
X6203167Y-18866317D01*
X6269834Y-18732984D02*
X6269834Y-18771079D01*
X6346025Y-18732984D02*
X6346025Y-18771079D01*
X6641263Y-19009174D02*
X6631739Y-18999650D01*
X6631739Y-18999650D02*
X6612691Y-18971079D01*
X6612691Y-18971079D02*
X6603168Y-18952031D01*
X6603168Y-18952031D02*
X6593644Y-18923460D01*
X6593644Y-18923460D02*
X6584120Y-18875841D01*
X6584120Y-18875841D02*
X6584120Y-18837746D01*
X6584120Y-18837746D02*
X6593644Y-18790127D01*
X6593644Y-18790127D02*
X6603168Y-18761555D01*
X6603168Y-18761555D02*
X6612691Y-18742508D01*
X6612691Y-18742508D02*
X6631739Y-18713936D01*
X6631739Y-18713936D02*
X6641263Y-18704412D01*
X6803168Y-18732984D02*
X6765072Y-18732984D01*
X6765072Y-18732984D02*
X6746025Y-18742508D01*
X6746025Y-18742508D02*
X6736501Y-18752031D01*
X6736501Y-18752031D02*
X6717453Y-18780603D01*
X6717453Y-18780603D02*
X6707929Y-18818698D01*
X6707929Y-18818698D02*
X6707929Y-18894889D01*
X6707929Y-18894889D02*
X6717453Y-18913936D01*
X6717453Y-18913936D02*
X6726977Y-18923460D01*
X6726977Y-18923460D02*
X6746025Y-18932984D01*
X6746025Y-18932984D02*
X6784120Y-18932984D01*
X6784120Y-18932984D02*
X6803168Y-18923460D01*
X6803168Y-18923460D02*
X6812691Y-18913936D01*
X6812691Y-18913936D02*
X6822215Y-18894889D01*
X6822215Y-18894889D02*
X6822215Y-18847270D01*
X6822215Y-18847270D02*
X6812691Y-18828222D01*
X6812691Y-18828222D02*
X6803168Y-18818698D01*
X6803168Y-18818698D02*
X6784120Y-18809174D01*
X6784120Y-18809174D02*
X6746025Y-18809174D01*
X6746025Y-18809174D02*
X6726977Y-18818698D01*
X6726977Y-18818698D02*
X6717453Y-18828222D01*
X6717453Y-18828222D02*
X6707929Y-18847270D01*
X7003168Y-18732984D02*
X6907929Y-18732984D01*
X6907929Y-18732984D02*
X6898406Y-18828222D01*
X6898406Y-18828222D02*
X6907929Y-18818698D01*
X6907929Y-18818698D02*
X6926977Y-18809174D01*
X6926977Y-18809174D02*
X6974596Y-18809174D01*
X6974596Y-18809174D02*
X6993644Y-18818698D01*
X6993644Y-18818698D02*
X7003168Y-18828222D01*
X7003168Y-18828222D02*
X7012691Y-18847270D01*
X7012691Y-18847270D02*
X7012691Y-18894889D01*
X7012691Y-18894889D02*
X7003168Y-18913936D01*
X7003168Y-18913936D02*
X6993644Y-18923460D01*
X6993644Y-18923460D02*
X6974596Y-18932984D01*
X6974596Y-18932984D02*
X6926977Y-18932984D01*
X6926977Y-18932984D02*
X6907929Y-18923460D01*
X6907929Y-18923460D02*
X6898406Y-18913936D01*
X7250787Y-18932984D02*
X7250787Y-18732984D01*
X7336501Y-18932984D02*
X7336501Y-18828222D01*
X7336501Y-18828222D02*
X7326977Y-18809174D01*
X7326977Y-18809174D02*
X7307930Y-18799650D01*
X7307930Y-18799650D02*
X7279358Y-18799650D01*
X7279358Y-18799650D02*
X7260310Y-18809174D01*
X7260310Y-18809174D02*
X7250787Y-18818698D01*
X7460310Y-18932984D02*
X7441263Y-18923460D01*
X7441263Y-18923460D02*
X7431739Y-18913936D01*
X7431739Y-18913936D02*
X7422215Y-18894889D01*
X7422215Y-18894889D02*
X7422215Y-18837746D01*
X7422215Y-18837746D02*
X7431739Y-18818698D01*
X7431739Y-18818698D02*
X7441263Y-18809174D01*
X7441263Y-18809174D02*
X7460310Y-18799650D01*
X7460310Y-18799650D02*
X7488882Y-18799650D01*
X7488882Y-18799650D02*
X7507930Y-18809174D01*
X7507930Y-18809174D02*
X7517453Y-18818698D01*
X7517453Y-18818698D02*
X7526977Y-18837746D01*
X7526977Y-18837746D02*
X7526977Y-18894889D01*
X7526977Y-18894889D02*
X7517453Y-18913936D01*
X7517453Y-18913936D02*
X7507930Y-18923460D01*
X7507930Y-18923460D02*
X7488882Y-18932984D01*
X7488882Y-18932984D02*
X7460310Y-18932984D01*
X7641263Y-18932984D02*
X7622215Y-18923460D01*
X7622215Y-18923460D02*
X7612691Y-18904412D01*
X7612691Y-18904412D02*
X7612691Y-18732984D01*
X7793644Y-18923460D02*
X7774596Y-18932984D01*
X7774596Y-18932984D02*
X7736501Y-18932984D01*
X7736501Y-18932984D02*
X7717453Y-18923460D01*
X7717453Y-18923460D02*
X7707930Y-18904412D01*
X7707930Y-18904412D02*
X7707930Y-18828222D01*
X7707930Y-18828222D02*
X7717453Y-18809174D01*
X7717453Y-18809174D02*
X7736501Y-18799650D01*
X7736501Y-18799650D02*
X7774596Y-18799650D01*
X7774596Y-18799650D02*
X7793644Y-18809174D01*
X7793644Y-18809174D02*
X7803168Y-18828222D01*
X7803168Y-18828222D02*
X7803168Y-18847270D01*
X7803168Y-18847270D02*
X7707930Y-18866317D01*
X7879358Y-18923460D02*
X7898406Y-18932984D01*
X7898406Y-18932984D02*
X7936501Y-18932984D01*
X7936501Y-18932984D02*
X7955549Y-18923460D01*
X7955549Y-18923460D02*
X7965072Y-18904412D01*
X7965072Y-18904412D02*
X7965072Y-18894889D01*
X7965072Y-18894889D02*
X7955549Y-18875841D01*
X7955549Y-18875841D02*
X7936501Y-18866317D01*
X7936501Y-18866317D02*
X7907930Y-18866317D01*
X7907930Y-18866317D02*
X7888882Y-18856793D01*
X7888882Y-18856793D02*
X7879358Y-18837746D01*
X7879358Y-18837746D02*
X7879358Y-18828222D01*
X7879358Y-18828222D02*
X7888882Y-18809174D01*
X7888882Y-18809174D02*
X7907930Y-18799650D01*
X7907930Y-18799650D02*
X7936501Y-18799650D01*
X7936501Y-18799650D02*
X7955549Y-18809174D01*
X8031739Y-19009174D02*
X8041263Y-18999650D01*
X8041263Y-18999650D02*
X8060311Y-18971079D01*
X8060311Y-18971079D02*
X8069834Y-18952031D01*
X8069834Y-18952031D02*
X8079358Y-18923460D01*
X8079358Y-18923460D02*
X8088882Y-18875841D01*
X8088882Y-18875841D02*
X8088882Y-18837746D01*
X8088882Y-18837746D02*
X8079358Y-18790127D01*
X8079358Y-18790127D02*
X8069834Y-18761555D01*
X8069834Y-18761555D02*
X8060311Y-18742508D01*
X8060311Y-18742508D02*
X8041263Y-18713936D01*
X8041263Y-18713936D02*
X8031739Y-18704412D01*
D13*
X2996200Y-19175500D02*
X3066200Y-19105500D01*
X2996200Y-19035500D01*
X2926200Y-19105500D01*
X2996200Y-19175500D01*
D11*
X3431739Y-19196984D02*
X3317453Y-19196984D01*
X3374596Y-19196984D02*
X3374596Y-18996984D01*
X3374596Y-18996984D02*
X3355548Y-19025555D01*
X3355548Y-19025555D02*
X3336501Y-19044603D01*
X3336501Y-19044603D02*
X3317453Y-19054127D01*
X3517453Y-19177936D02*
X3526977Y-19187460D01*
X3526977Y-19187460D02*
X3517453Y-19196984D01*
X3517453Y-19196984D02*
X3507929Y-19187460D01*
X3507929Y-19187460D02*
X3517453Y-19177936D01*
X3517453Y-19177936D02*
X3517453Y-19196984D01*
X3698405Y-19063650D02*
X3698405Y-19196984D01*
X3650786Y-18987460D02*
X3603167Y-19130317D01*
X3603167Y-19130317D02*
X3726977Y-19130317D01*
X3841262Y-18996984D02*
X3860310Y-18996984D01*
X3860310Y-18996984D02*
X3879358Y-19006508D01*
X3879358Y-19006508D02*
X3888882Y-19016031D01*
X3888882Y-19016031D02*
X3898405Y-19035079D01*
X3898405Y-19035079D02*
X3907929Y-19073174D01*
X3907929Y-19073174D02*
X3907929Y-19120793D01*
X3907929Y-19120793D02*
X3898405Y-19158889D01*
X3898405Y-19158889D02*
X3888882Y-19177936D01*
X3888882Y-19177936D02*
X3879358Y-19187460D01*
X3879358Y-19187460D02*
X3860310Y-19196984D01*
X3860310Y-19196984D02*
X3841262Y-19196984D01*
X3841262Y-19196984D02*
X3822215Y-19187460D01*
X3822215Y-19187460D02*
X3812691Y-19177936D01*
X3812691Y-19177936D02*
X3803167Y-19158889D01*
X3803167Y-19158889D02*
X3793643Y-19120793D01*
X3793643Y-19120793D02*
X3793643Y-19073174D01*
X3793643Y-19073174D02*
X3803167Y-19035079D01*
X3803167Y-19035079D02*
X3812691Y-19016031D01*
X3812691Y-19016031D02*
X3822215Y-19006508D01*
X3822215Y-19006508D02*
X3841262Y-18996984D01*
X4031739Y-18996984D02*
X4050786Y-18996984D01*
X4050786Y-18996984D02*
X4069834Y-19006508D01*
X4069834Y-19006508D02*
X4079358Y-19016031D01*
X4079358Y-19016031D02*
X4088882Y-19035079D01*
X4088882Y-19035079D02*
X4098405Y-19073174D01*
X4098405Y-19073174D02*
X4098405Y-19120793D01*
X4098405Y-19120793D02*
X4088882Y-19158889D01*
X4088882Y-19158889D02*
X4079358Y-19177936D01*
X4079358Y-19177936D02*
X4069834Y-19187460D01*
X4069834Y-19187460D02*
X4050786Y-19196984D01*
X4050786Y-19196984D02*
X4031739Y-19196984D01*
X4031739Y-19196984D02*
X4012691Y-19187460D01*
X4012691Y-19187460D02*
X4003167Y-19177936D01*
X4003167Y-19177936D02*
X3993643Y-19158889D01*
X3993643Y-19158889D02*
X3984120Y-19120793D01*
X3984120Y-19120793D02*
X3984120Y-19073174D01*
X3984120Y-19073174D02*
X3993643Y-19035079D01*
X3993643Y-19035079D02*
X4003167Y-19016031D01*
X4003167Y-19016031D02*
X4012691Y-19006508D01*
X4012691Y-19006508D02*
X4031739Y-18996984D01*
X4184120Y-19196984D02*
X4184120Y-19063650D01*
X4184120Y-19082698D02*
X4193643Y-19073174D01*
X4193643Y-19073174D02*
X4212691Y-19063650D01*
X4212691Y-19063650D02*
X4241263Y-19063650D01*
X4241263Y-19063650D02*
X4260310Y-19073174D01*
X4260310Y-19073174D02*
X4269834Y-19092222D01*
X4269834Y-19092222D02*
X4269834Y-19196984D01*
X4269834Y-19092222D02*
X4279358Y-19073174D01*
X4279358Y-19073174D02*
X4298405Y-19063650D01*
X4298405Y-19063650D02*
X4326977Y-19063650D01*
X4326977Y-19063650D02*
X4346025Y-19073174D01*
X4346025Y-19073174D02*
X4355548Y-19092222D01*
X4355548Y-19092222D02*
X4355548Y-19196984D01*
X4450786Y-19196984D02*
X4450786Y-19063650D01*
X4450786Y-19082698D02*
X4460310Y-19073174D01*
X4460310Y-19073174D02*
X4479358Y-19063650D01*
X4479358Y-19063650D02*
X4507929Y-19063650D01*
X4507929Y-19063650D02*
X4526977Y-19073174D01*
X4526977Y-19073174D02*
X4536501Y-19092222D01*
X4536501Y-19092222D02*
X4536501Y-19196984D01*
X4536501Y-19092222D02*
X4546025Y-19073174D01*
X4546025Y-19073174D02*
X4565072Y-19063650D01*
X4565072Y-19063650D02*
X4593644Y-19063650D01*
X4593644Y-19063650D02*
X4612691Y-19073174D01*
X4612691Y-19073174D02*
X4622215Y-19092222D01*
X4622215Y-19092222D02*
X4622215Y-19196984D01*
X5012691Y-18987460D02*
X4841263Y-19244603D01*
X5269834Y-18996984D02*
X5288882Y-18996984D01*
X5288882Y-18996984D02*
X5307929Y-19006508D01*
X5307929Y-19006508D02*
X5317453Y-19016031D01*
X5317453Y-19016031D02*
X5326977Y-19035079D01*
X5326977Y-19035079D02*
X5336501Y-19073174D01*
X5336501Y-19073174D02*
X5336501Y-19120793D01*
X5336501Y-19120793D02*
X5326977Y-19158889D01*
X5326977Y-19158889D02*
X5317453Y-19177936D01*
X5317453Y-19177936D02*
X5307929Y-19187460D01*
X5307929Y-19187460D02*
X5288882Y-19196984D01*
X5288882Y-19196984D02*
X5269834Y-19196984D01*
X5269834Y-19196984D02*
X5250787Y-19187460D01*
X5250787Y-19187460D02*
X5241263Y-19177936D01*
X5241263Y-19177936D02*
X5231739Y-19158889D01*
X5231739Y-19158889D02*
X5222215Y-19120793D01*
X5222215Y-19120793D02*
X5222215Y-19073174D01*
X5222215Y-19073174D02*
X5231739Y-19035079D01*
X5231739Y-19035079D02*
X5241263Y-19016031D01*
X5241263Y-19016031D02*
X5250787Y-19006508D01*
X5250787Y-19006508D02*
X5269834Y-18996984D01*
X5422215Y-19177936D02*
X5431739Y-19187460D01*
X5431739Y-19187460D02*
X5422215Y-19196984D01*
X5422215Y-19196984D02*
X5412691Y-19187460D01*
X5412691Y-19187460D02*
X5422215Y-19177936D01*
X5422215Y-19177936D02*
X5422215Y-19196984D01*
X5555548Y-18996984D02*
X5574596Y-18996984D01*
X5574596Y-18996984D02*
X5593644Y-19006508D01*
X5593644Y-19006508D02*
X5603167Y-19016031D01*
X5603167Y-19016031D02*
X5612691Y-19035079D01*
X5612691Y-19035079D02*
X5622215Y-19073174D01*
X5622215Y-19073174D02*
X5622215Y-19120793D01*
X5622215Y-19120793D02*
X5612691Y-19158889D01*
X5612691Y-19158889D02*
X5603167Y-19177936D01*
X5603167Y-19177936D02*
X5593644Y-19187460D01*
X5593644Y-19187460D02*
X5574596Y-19196984D01*
X5574596Y-19196984D02*
X5555548Y-19196984D01*
X5555548Y-19196984D02*
X5536501Y-19187460D01*
X5536501Y-19187460D02*
X5526977Y-19177936D01*
X5526977Y-19177936D02*
X5517453Y-19158889D01*
X5517453Y-19158889D02*
X5507929Y-19120793D01*
X5507929Y-19120793D02*
X5507929Y-19073174D01*
X5507929Y-19073174D02*
X5517453Y-19035079D01*
X5517453Y-19035079D02*
X5526977Y-19016031D01*
X5526977Y-19016031D02*
X5536501Y-19006508D01*
X5536501Y-19006508D02*
X5555548Y-18996984D01*
X5803167Y-18996984D02*
X5707929Y-18996984D01*
X5707929Y-18996984D02*
X5698406Y-19092222D01*
X5698406Y-19092222D02*
X5707929Y-19082698D01*
X5707929Y-19082698D02*
X5726977Y-19073174D01*
X5726977Y-19073174D02*
X5774596Y-19073174D01*
X5774596Y-19073174D02*
X5793644Y-19082698D01*
X5793644Y-19082698D02*
X5803167Y-19092222D01*
X5803167Y-19092222D02*
X5812691Y-19111270D01*
X5812691Y-19111270D02*
X5812691Y-19158889D01*
X5812691Y-19158889D02*
X5803167Y-19177936D01*
X5803167Y-19177936D02*
X5793644Y-19187460D01*
X5793644Y-19187460D02*
X5774596Y-19196984D01*
X5774596Y-19196984D02*
X5726977Y-19196984D01*
X5726977Y-19196984D02*
X5707929Y-19187460D01*
X5707929Y-19187460D02*
X5698406Y-19177936D01*
X5993644Y-18996984D02*
X5898406Y-18996984D01*
X5898406Y-18996984D02*
X5888882Y-19092222D01*
X5888882Y-19092222D02*
X5898406Y-19082698D01*
X5898406Y-19082698D02*
X5917453Y-19073174D01*
X5917453Y-19073174D02*
X5965072Y-19073174D01*
X5965072Y-19073174D02*
X5984120Y-19082698D01*
X5984120Y-19082698D02*
X5993644Y-19092222D01*
X5993644Y-19092222D02*
X6003167Y-19111270D01*
X6003167Y-19111270D02*
X6003167Y-19158889D01*
X6003167Y-19158889D02*
X5993644Y-19177936D01*
X5993644Y-19177936D02*
X5984120Y-19187460D01*
X5984120Y-19187460D02*
X5965072Y-19196984D01*
X5965072Y-19196984D02*
X5917453Y-19196984D01*
X5917453Y-19196984D02*
X5898406Y-19187460D01*
X5898406Y-19187460D02*
X5888882Y-19177936D01*
X6193644Y-19196984D02*
X6079358Y-19196984D01*
X6136501Y-19196984D02*
X6136501Y-18996984D01*
X6136501Y-18996984D02*
X6117453Y-19025555D01*
X6117453Y-19025555D02*
X6098406Y-19044603D01*
X6098406Y-19044603D02*
X6079358Y-19054127D01*
X6269834Y-18996984D02*
X6269834Y-19035079D01*
X6346025Y-18996984D02*
X6346025Y-19035079D01*
X6641263Y-19273174D02*
X6631739Y-19263650D01*
X6631739Y-19263650D02*
X6612691Y-19235079D01*
X6612691Y-19235079D02*
X6603168Y-19216031D01*
X6603168Y-19216031D02*
X6593644Y-19187460D01*
X6593644Y-19187460D02*
X6584120Y-19139841D01*
X6584120Y-19139841D02*
X6584120Y-19101746D01*
X6584120Y-19101746D02*
X6593644Y-19054127D01*
X6593644Y-19054127D02*
X6603168Y-19025555D01*
X6603168Y-19025555D02*
X6612691Y-19006508D01*
X6612691Y-19006508D02*
X6631739Y-18977936D01*
X6631739Y-18977936D02*
X6641263Y-18968412D01*
X6803168Y-19063650D02*
X6803168Y-19196984D01*
X6755548Y-18987460D02*
X6707929Y-19130317D01*
X6707929Y-19130317D02*
X6831739Y-19130317D01*
X6936501Y-19082698D02*
X6917453Y-19073174D01*
X6917453Y-19073174D02*
X6907929Y-19063650D01*
X6907929Y-19063650D02*
X6898406Y-19044603D01*
X6898406Y-19044603D02*
X6898406Y-19035079D01*
X6898406Y-19035079D02*
X6907929Y-19016031D01*
X6907929Y-19016031D02*
X6917453Y-19006508D01*
X6917453Y-19006508D02*
X6936501Y-18996984D01*
X6936501Y-18996984D02*
X6974596Y-18996984D01*
X6974596Y-18996984D02*
X6993644Y-19006508D01*
X6993644Y-19006508D02*
X7003168Y-19016031D01*
X7003168Y-19016031D02*
X7012691Y-19035079D01*
X7012691Y-19035079D02*
X7012691Y-19044603D01*
X7012691Y-19044603D02*
X7003168Y-19063650D01*
X7003168Y-19063650D02*
X6993644Y-19073174D01*
X6993644Y-19073174D02*
X6974596Y-19082698D01*
X6974596Y-19082698D02*
X6936501Y-19082698D01*
X6936501Y-19082698D02*
X6917453Y-19092222D01*
X6917453Y-19092222D02*
X6907929Y-19101746D01*
X6907929Y-19101746D02*
X6898406Y-19120793D01*
X6898406Y-19120793D02*
X6898406Y-19158889D01*
X6898406Y-19158889D02*
X6907929Y-19177936D01*
X6907929Y-19177936D02*
X6917453Y-19187460D01*
X6917453Y-19187460D02*
X6936501Y-19196984D01*
X6936501Y-19196984D02*
X6974596Y-19196984D01*
X6974596Y-19196984D02*
X6993644Y-19187460D01*
X6993644Y-19187460D02*
X7003168Y-19177936D01*
X7003168Y-19177936D02*
X7012691Y-19158889D01*
X7012691Y-19158889D02*
X7012691Y-19120793D01*
X7012691Y-19120793D02*
X7003168Y-19101746D01*
X7003168Y-19101746D02*
X6993644Y-19092222D01*
X6993644Y-19092222D02*
X6974596Y-19082698D01*
X7250787Y-19196984D02*
X7250787Y-18996984D01*
X7336501Y-19196984D02*
X7336501Y-19092222D01*
X7336501Y-19092222D02*
X7326977Y-19073174D01*
X7326977Y-19073174D02*
X7307930Y-19063650D01*
X7307930Y-19063650D02*
X7279358Y-19063650D01*
X7279358Y-19063650D02*
X7260310Y-19073174D01*
X7260310Y-19073174D02*
X7250787Y-19082698D01*
X7460310Y-19196984D02*
X7441263Y-19187460D01*
X7441263Y-19187460D02*
X7431739Y-19177936D01*
X7431739Y-19177936D02*
X7422215Y-19158889D01*
X7422215Y-19158889D02*
X7422215Y-19101746D01*
X7422215Y-19101746D02*
X7431739Y-19082698D01*
X7431739Y-19082698D02*
X7441263Y-19073174D01*
X7441263Y-19073174D02*
X7460310Y-19063650D01*
X7460310Y-19063650D02*
X7488882Y-19063650D01*
X7488882Y-19063650D02*
X7507930Y-19073174D01*
X7507930Y-19073174D02*
X7517453Y-19082698D01*
X7517453Y-19082698D02*
X7526977Y-19101746D01*
X7526977Y-19101746D02*
X7526977Y-19158889D01*
X7526977Y-19158889D02*
X7517453Y-19177936D01*
X7517453Y-19177936D02*
X7507930Y-19187460D01*
X7507930Y-19187460D02*
X7488882Y-19196984D01*
X7488882Y-19196984D02*
X7460310Y-19196984D01*
X7641263Y-19196984D02*
X7622215Y-19187460D01*
X7622215Y-19187460D02*
X7612691Y-19168412D01*
X7612691Y-19168412D02*
X7612691Y-18996984D01*
X7793644Y-19187460D02*
X7774596Y-19196984D01*
X7774596Y-19196984D02*
X7736501Y-19196984D01*
X7736501Y-19196984D02*
X7717453Y-19187460D01*
X7717453Y-19187460D02*
X7707930Y-19168412D01*
X7707930Y-19168412D02*
X7707930Y-19092222D01*
X7707930Y-19092222D02*
X7717453Y-19073174D01*
X7717453Y-19073174D02*
X7736501Y-19063650D01*
X7736501Y-19063650D02*
X7774596Y-19063650D01*
X7774596Y-19063650D02*
X7793644Y-19073174D01*
X7793644Y-19073174D02*
X7803168Y-19092222D01*
X7803168Y-19092222D02*
X7803168Y-19111270D01*
X7803168Y-19111270D02*
X7707930Y-19130317D01*
X7879358Y-19187460D02*
X7898406Y-19196984D01*
X7898406Y-19196984D02*
X7936501Y-19196984D01*
X7936501Y-19196984D02*
X7955549Y-19187460D01*
X7955549Y-19187460D02*
X7965072Y-19168412D01*
X7965072Y-19168412D02*
X7965072Y-19158889D01*
X7965072Y-19158889D02*
X7955549Y-19139841D01*
X7955549Y-19139841D02*
X7936501Y-19130317D01*
X7936501Y-19130317D02*
X7907930Y-19130317D01*
X7907930Y-19130317D02*
X7888882Y-19120793D01*
X7888882Y-19120793D02*
X7879358Y-19101746D01*
X7879358Y-19101746D02*
X7879358Y-19092222D01*
X7879358Y-19092222D02*
X7888882Y-19073174D01*
X7888882Y-19073174D02*
X7907930Y-19063650D01*
X7907930Y-19063650D02*
X7936501Y-19063650D01*
X7936501Y-19063650D02*
X7955549Y-19073174D01*
X8031739Y-19273174D02*
X8041263Y-19263650D01*
X8041263Y-19263650D02*
X8060311Y-19235079D01*
X8060311Y-19235079D02*
X8069834Y-19216031D01*
X8069834Y-19216031D02*
X8079358Y-19187460D01*
X8079358Y-19187460D02*
X8088882Y-19139841D01*
X8088882Y-19139841D02*
X8088882Y-19101746D01*
X8088882Y-19101746D02*
X8079358Y-19054127D01*
X8079358Y-19054127D02*
X8069834Y-19025555D01*
X8069834Y-19025555D02*
X8060311Y-19006508D01*
X8060311Y-19006508D02*
X8041263Y-18977936D01*
X8041263Y-18977936D02*
X8031739Y-18968412D01*
M02*
