%TF.GenerationSoftware,KiCad,Pcbnew,8.0.2*%
%TF.CreationDate,2024-07-09T15:06:59+02:00*%
%TF.ProjectId,PiADC-IO,50694144-432d-4494-9f2e-6b696361645f,1*%
%TF.SameCoordinates,Original*%
%TF.FileFunction,Soldermask,Top*%
%TF.FilePolarity,Negative*%
%FSLAX46Y46*%
G04 Gerber Fmt 4.6, Leading zero omitted, Abs format (unit mm)*
G04 Created by KiCad (PCBNEW 8.0.2) date 2024-07-09 15:06:59*
%MOMM*%
%LPD*%
G01*
G04 APERTURE LIST*
G04 Aperture macros list*
%AMRoundRect*
0 Rectangle with rounded corners*
0 $1 Rounding radius*
0 $2 $3 $4 $5 $6 $7 $8 $9 X,Y pos of 4 corners*
0 Add a 4 corners polygon primitive as box body*
4,1,4,$2,$3,$4,$5,$6,$7,$8,$9,$2,$3,0*
0 Add four circle primitives for the rounded corners*
1,1,$1+$1,$2,$3*
1,1,$1+$1,$4,$5*
1,1,$1+$1,$6,$7*
1,1,$1+$1,$8,$9*
0 Add four rect primitives between the rounded corners*
20,1,$1+$1,$2,$3,$4,$5,0*
20,1,$1+$1,$4,$5,$6,$7,0*
20,1,$1+$1,$6,$7,$8,$9,0*
20,1,$1+$1,$8,$9,$2,$3,0*%
G04 Aperture macros list end*
%ADD10C,1.600000*%
%ADD11R,1.700000X1.700000*%
%ADD12O,1.700000X1.700000*%
%ADD13O,1.600000X1.600000*%
%ADD14RoundRect,0.249999X-0.790001X-1.550001X0.790001X-1.550001X0.790001X1.550001X-0.790001X1.550001X0*%
%ADD15O,2.080000X3.600000*%
%ADD16RoundRect,0.249999X1.550001X-0.790001X1.550001X0.790001X-1.550001X0.790001X-1.550001X-0.790001X0*%
%ADD17O,3.600000X2.080000*%
%ADD18C,3.000000*%
%ADD19C,2.750000*%
%ADD20R,1.600000X2.400000*%
%ADD21O,1.600000X2.400000*%
%ADD22R,2.400000X1.600000*%
%ADD23O,2.400000X1.600000*%
%ADD24R,1.800000X1.800000*%
%ADD25C,1.800000*%
%ADD26R,1.050000X1.500000*%
%ADD27O,1.050000X1.500000*%
G04 APERTURE END LIST*
D10*
%TO.C,C1*%
X79750000Y-52500000D03*
X82250000Y-52500000D03*
%TD*%
D11*
%TO.C,J22*%
X199960000Y-165500000D03*
D12*
X202500000Y-165500000D03*
%TD*%
D11*
%TO.C,J1*%
X37000000Y-86080000D03*
D12*
X37000000Y-83540000D03*
X37000000Y-81000000D03*
%TD*%
D10*
%TO.C,R5*%
X203690000Y-150500000D03*
D13*
X211310000Y-150500000D03*
%TD*%
D14*
%TO.C,J21*%
X154920000Y-160500000D03*
D15*
X160000000Y-160500000D03*
%TD*%
D16*
%TO.C,J5*%
X221000000Y-84000000D03*
D17*
X221000000Y-78920000D03*
X221000000Y-73840000D03*
X221000000Y-68760000D03*
X221000000Y-63680000D03*
X221000000Y-58600000D03*
X221000000Y-53520000D03*
X221000000Y-48440000D03*
X221000000Y-43360000D03*
X221000000Y-38280000D03*
%TD*%
D14*
%TO.C,J8*%
X131000000Y-25000000D03*
D15*
X136080000Y-25000000D03*
X141160000Y-25000000D03*
X146240000Y-25000000D03*
X151320000Y-25000000D03*
X156400000Y-25000000D03*
%TD*%
D11*
%TO.C,J19*%
X116000000Y-88460000D03*
D12*
X116000000Y-91000000D03*
%TD*%
D14*
%TO.C,J11*%
X90500000Y-25000000D03*
D15*
X95580000Y-25000000D03*
X100660000Y-25000000D03*
X105740000Y-25000000D03*
X110820000Y-25000000D03*
X115900000Y-25000000D03*
%TD*%
D18*
%TO.C,H4*%
X225500000Y-169500000D03*
%TD*%
D10*
%TO.C,C6*%
X197250000Y-104000000D03*
X199750000Y-104000000D03*
%TD*%
D11*
%TO.C,J6*%
X69920000Y-72000000D03*
D12*
X72460000Y-72000000D03*
X75000000Y-72000000D03*
%TD*%
D19*
%TO.C,J2*%
X105000000Y-165500000D03*
X105000000Y-116500000D03*
X47000000Y-165500000D03*
X47000000Y-116500000D03*
%TD*%
D10*
%TO.C,R4*%
X202190000Y-139500000D03*
D13*
X209810000Y-139500000D03*
%TD*%
D18*
%TO.C,H2*%
X35000000Y-19500000D03*
%TD*%
D10*
%TO.C,R1*%
X182310000Y-62500000D03*
D13*
X174690000Y-62500000D03*
%TD*%
D11*
%TO.C,J3*%
X37000000Y-101500000D03*
D12*
X37000000Y-98960000D03*
%TD*%
D14*
%TO.C,J16*%
X175500000Y-160500000D03*
D15*
X180580000Y-160500000D03*
%TD*%
D11*
%TO.C,J18*%
X116000000Y-100000000D03*
D12*
X116000000Y-102540000D03*
%TD*%
D11*
%TO.C,J17*%
X86475000Y-72000000D03*
D12*
X89015000Y-72000000D03*
X91555000Y-72000000D03*
%TD*%
D20*
%TO.C,U3*%
X175660000Y-37500000D03*
D21*
X173120000Y-37500000D03*
X170580000Y-37500000D03*
X168040000Y-37500000D03*
X165500000Y-37500000D03*
X162960000Y-37500000D03*
X160420000Y-37500000D03*
X157880000Y-37500000D03*
X157880000Y-45120000D03*
X160420000Y-45120000D03*
X162960000Y-45120000D03*
X165500000Y-45120000D03*
X168040000Y-45120000D03*
X170580000Y-45120000D03*
X173120000Y-45120000D03*
X175660000Y-45120000D03*
%TD*%
D14*
%TO.C,J10*%
X49800000Y-25000000D03*
D15*
X54880000Y-25000000D03*
X59960000Y-25000000D03*
X65040000Y-25000000D03*
X70120000Y-25000000D03*
X75200000Y-25000000D03*
%TD*%
D14*
%TO.C,J9*%
X171500000Y-25000000D03*
D15*
X176580000Y-25000000D03*
X181660000Y-25000000D03*
X186740000Y-25000000D03*
X191820000Y-25000000D03*
X196900000Y-25000000D03*
%TD*%
D22*
%TO.C,U1*%
X189880000Y-109420000D03*
D23*
X189880000Y-111960000D03*
X189880000Y-114500000D03*
X189880000Y-117040000D03*
X189880000Y-119580000D03*
X189880000Y-122120000D03*
X189880000Y-124660000D03*
X189880000Y-127200000D03*
X189880000Y-129740000D03*
X197500000Y-129740000D03*
X197500000Y-127200000D03*
X197500000Y-124660000D03*
X197500000Y-122120000D03*
X197500000Y-119580000D03*
X197500000Y-117040000D03*
X197500000Y-114500000D03*
X197500000Y-111960000D03*
X197500000Y-109420000D03*
%TD*%
D10*
%TO.C,C2*%
X89250000Y-50500000D03*
X91750000Y-50500000D03*
%TD*%
D11*
%TO.C,J20*%
X159040000Y-69000000D03*
D12*
X156500000Y-69000000D03*
X153960000Y-69000000D03*
X151420000Y-69000000D03*
X148880000Y-69000000D03*
X146340000Y-69000000D03*
%TD*%
D18*
%TO.C,H3*%
X35000000Y-169500000D03*
%TD*%
D11*
%TO.C,J4*%
X37000000Y-69775000D03*
D12*
X37000000Y-67235000D03*
%TD*%
D16*
%TO.C,J13*%
X221000000Y-145000000D03*
D17*
X221000000Y-139920000D03*
X221000000Y-134840000D03*
X221000000Y-129760000D03*
X221000000Y-124680000D03*
X221000000Y-119600000D03*
X221000000Y-114520000D03*
X221000000Y-109440000D03*
X221000000Y-104360000D03*
X221000000Y-99280000D03*
%TD*%
D10*
%TO.C,R2*%
X201880000Y-76500000D03*
D13*
X209500000Y-76500000D03*
%TD*%
D10*
%TO.C,C3*%
X161250000Y-54000000D03*
X163750000Y-54000000D03*
%TD*%
D18*
%TO.C,H1*%
X223725000Y-19500000D03*
%TD*%
D10*
%TO.C,C5*%
X200250000Y-43000000D03*
X202750000Y-43000000D03*
%TD*%
%TO.C,R6*%
X187190000Y-159000000D03*
D13*
X194810000Y-159000000D03*
%TD*%
D24*
%TO.C,D1*%
X192725000Y-139500000D03*
D25*
X195265000Y-139500000D03*
%TD*%
D24*
%TO.C,D2*%
X202775000Y-159000000D03*
D25*
X200235000Y-159000000D03*
%TD*%
D22*
%TO.C,U5*%
X190000000Y-50000000D03*
D23*
X190000000Y-52540000D03*
X190000000Y-55080000D03*
X190000000Y-57620000D03*
X190000000Y-60160000D03*
X190000000Y-62700000D03*
X190000000Y-65240000D03*
X190000000Y-67780000D03*
X190000000Y-70320000D03*
X197620000Y-70320000D03*
X197620000Y-67780000D03*
X197620000Y-65240000D03*
X197620000Y-62700000D03*
X197620000Y-60160000D03*
X197620000Y-57620000D03*
X197620000Y-55080000D03*
X197620000Y-52540000D03*
X197620000Y-50000000D03*
%TD*%
D20*
%TO.C,U2*%
X89200000Y-38380000D03*
D21*
X86660000Y-38380000D03*
X84120000Y-38380000D03*
X81580000Y-38380000D03*
X79040000Y-38380000D03*
X76500000Y-38380000D03*
X73960000Y-38380000D03*
X71420000Y-38380000D03*
X71420000Y-46000000D03*
X73960000Y-46000000D03*
X76500000Y-46000000D03*
X79040000Y-46000000D03*
X81580000Y-46000000D03*
X84120000Y-46000000D03*
X86660000Y-46000000D03*
X89200000Y-46000000D03*
%TD*%
D10*
%TO.C,C4*%
X169250000Y-54000000D03*
X171750000Y-54000000D03*
%TD*%
D26*
%TO.C,Q1*%
X209960000Y-159000000D03*
D27*
X211230000Y-159000000D03*
X212500000Y-159000000D03*
%TD*%
D24*
%TO.C,D3*%
X192725000Y-76500000D03*
D25*
X195265000Y-76500000D03*
%TD*%
D10*
%TO.C,R3*%
X182310000Y-122000000D03*
D13*
X174690000Y-122000000D03*
%TD*%
D11*
%TO.C,J15*%
X51920000Y-89540000D03*
D12*
X51920000Y-87000000D03*
X54460000Y-89540000D03*
X54460000Y-87000000D03*
X57000000Y-89540000D03*
X57000000Y-87000000D03*
X59540000Y-89540000D03*
X59540000Y-87000000D03*
X62080000Y-89540000D03*
X62080000Y-87000000D03*
X64620000Y-89540000D03*
X64620000Y-87000000D03*
X67160000Y-89540000D03*
X67160000Y-87000000D03*
X69700000Y-89540000D03*
X69700000Y-87000000D03*
X72240000Y-89540000D03*
X72240000Y-87000000D03*
X74780000Y-89540000D03*
X74780000Y-87000000D03*
X77320000Y-89540000D03*
X77320000Y-87000000D03*
X79860000Y-89540000D03*
X79860000Y-87000000D03*
X82400000Y-89540000D03*
X82400000Y-87000000D03*
X84940000Y-89540000D03*
X84940000Y-87000000D03*
X87480000Y-89540000D03*
X87480000Y-87000000D03*
X90020000Y-89540000D03*
X90020000Y-87000000D03*
X92560000Y-89540000D03*
X92560000Y-87000000D03*
X95100000Y-89540000D03*
X95100000Y-87000000D03*
X97640000Y-89540000D03*
X97640000Y-87000000D03*
X100180000Y-89540000D03*
X100180000Y-87000000D03*
%TD*%
M02*
